<svg width="16" height="16" viewBox="0 0 16 16" fill="none" xmlns="http://www.w3.org/2000/svg">
<g clip-path="url(#clip0_160_3490)">
<path fill-rule="evenodd" clip-rule="evenodd" d="M13.334 3.33301C13.6704 3.3329 13.9944 3.45995 14.241 3.68867C14.4877 3.9174 14.6388 4.2309 14.664 4.56634L14.6673 4.66634V11.333C14.6674 11.6694 14.5404 11.9934 14.3117 12.24C14.0829 12.4867 13.7694 12.6378 13.434 12.663L13.334 12.6663H2.66732C2.33093 12.6664 2.00694 12.5394 1.76029 12.3107C1.51363 12.0819 1.36255 11.7684 1.33732 11.433L1.33398 11.333V4.66634C1.33388 4.32996 1.46092 4.00596 1.68965 3.75931C1.91838 3.51265 2.23188 3.36157 2.56732 3.33634L2.66732 3.33301H13.334ZM11.336 4.66634H4.66532L4.66732 4.74967C4.66732 5.00137 4.61774 5.25061 4.52142 5.48315C4.4251 5.71569 4.28392 5.92698 4.10594 6.10496C3.92796 6.28294 3.71667 6.42412 3.48413 6.52044C3.25159 6.61677 3.00235 6.66634 2.75065 6.66634L2.66732 6.66434V9.33501L2.75065 9.33301C3.25898 9.33301 3.74649 9.53494 4.10594 9.89439C4.46538 10.2538 4.66732 10.7413 4.66732 11.2497L4.66532 11.333H11.336L11.334 11.2497C11.334 10.7608 11.5208 10.2905 11.8561 9.93483C12.1914 9.57917 12.65 9.36508 13.138 9.33634L13.2927 9.33367L13.334 9.33501V6.66434L13.2507 6.66634C12.7618 6.66634 12.2915 6.47956 11.9358 6.14422C11.5801 5.80888 11.3661 5.35032 11.3373 4.86234L11.334 4.70767L11.336 4.66634ZM13.2507 10.6663C13.167 10.6663 13.0843 10.6843 13.0083 10.7191C12.9322 10.7539 12.8645 10.8046 12.8097 10.8678C12.7549 10.931 12.7144 11.0053 12.6909 11.0856C12.6674 11.1658 12.6614 11.2502 12.6733 11.333H13.334V10.6723C13.3064 10.6684 13.2785 10.6664 13.2507 10.6663ZM2.75065 10.6663C2.72277 10.6664 2.69492 10.6684 2.66732 10.6723V11.333H3.32798C3.33993 11.2502 3.33394 11.1658 3.31041 11.0856C3.28687 11.0053 3.24636 10.931 3.1916 10.8678C3.13684 10.8046 3.06912 10.7539 2.99304 10.7191C2.91696 10.6843 2.8343 10.6663 2.75065 10.6663ZM8.00065 5.33301C8.70789 5.33301 9.38617 5.61396 9.88627 6.11406C10.3864 6.61415 10.6673 7.29243 10.6673 7.99967C10.6673 8.70692 10.3864 9.3852 9.88627 9.88529C9.38617 10.3854 8.70789 10.6663 8.00065 10.6663C7.29341 10.6663 6.61513 10.3854 6.11503 9.88529C5.61494 9.3852 5.33398 8.70692 5.33398 7.99967C5.33398 7.29243 5.61494 6.61415 6.11503 6.11406C6.61513 5.61396 7.29341 5.33301 8.00065 5.33301ZM8.00065 6.66634C7.64703 6.66634 7.30789 6.80682 7.05784 7.05687C6.80779 7.30691 6.66732 7.64605 6.66732 7.99967C6.66732 8.3533 6.80779 8.69243 7.05784 8.94248C7.30789 9.19253 7.64703 9.33301 8.00065 9.33301C8.35427 9.33301 8.69341 9.19253 8.94346 8.94248C9.19351 8.69243 9.33398 8.3533 9.33398 7.99967C9.33398 7.64605 9.19351 7.30691 8.94346 7.05687C8.69341 6.80682 8.35427 6.66634 8.00065 6.66634ZM3.32798 4.66634H2.66732V5.32701C2.75011 5.33896 2.83449 5.33296 2.91476 5.30943C2.99503 5.2859 3.0693 5.24538 3.13253 5.19062C3.19576 5.13586 3.24647 5.06815 3.28123 4.99207C3.31599 4.91599 3.33398 4.83332 3.33398 4.74967L3.33265 4.70767L3.32798 4.66634ZM13.334 4.66634H12.6733C12.6614 4.74913 12.6674 4.83352 12.6909 4.91378C12.7144 4.99405 12.7549 5.06832 12.8097 5.13155C12.8645 5.19478 12.9322 5.24549 13.0083 5.28025C13.0843 5.31501 13.167 5.33301 13.2507 5.33301L13.2927 5.33167L13.334 5.32634V4.66634Z" fill="black"/>
</g>
<defs>
<clipPath id="clip0_160_3490">
<rect width="16" height="16" fill="white"/>
</clipPath>
</defs>
</svg>
