<svg width="247" height="246" viewBox="0 0 247 246" fill="none" xmlns="http://www.w3.org/2000/svg">
<path d="M48.8866 137.073C7.68013 160.864 7.68111 199.436 48.8891 223.227C90.0965 247.018 156.907 247.018 198.113 223.227C239.32 199.436 239.319 160.864 198.111 137.073C156.903 113.283 90.0931 113.283 48.8866 137.073Z" fill="#F5F5F5"/>
<path d="M57.1096 193.832L61.1518 191.496C61.1518 191.496 63.5577 181.499 62.5988 172.505C61.2507 159.858 52.9261 155.1 49.7611 156.19C46.5955 157.281 45.6789 160.961 50.9168 168.493C54.0065 172.937 57.8028 182.193 57.1096 193.832Z" fill="#EA2A3A"/>
<g opacity="0.65">
<path d="M57.1096 193.832L61.1518 191.496C61.1518 191.496 63.5577 181.499 62.5988 172.505C61.2507 159.858 52.9261 155.1 49.7611 156.19C46.5955 157.281 45.6789 160.961 50.9168 168.493C54.0065 172.937 57.8028 182.193 57.1096 193.832Z" fill="white"/>
</g>
<path d="M58.7844 188.921C58.7711 188.92 58.7588 188.918 58.746 188.916C58.594 188.887 58.4936 188.74 58.5231 188.588C60.7386 176.924 56.6638 163.816 51.6179 158.362C51.5131 158.249 51.5195 158.07 51.6336 157.966C51.7473 157.862 51.9249 157.867 52.0297 157.981C57.1677 163.535 61.3221 176.856 59.0737 188.693C59.0471 188.832 58.9216 188.928 58.7844 188.921Z" fill="white"/>
<path d="M47.6963 199.749C47.0926 200.057 44.7266 198.638 44.2789 198.303C43.5123 197.731 42.9082 196.945 42.5239 196.071C42.0772 195.054 42.0058 193.985 42.2164 192.895C42.3256 192.331 42.5131 191.784 42.6996 191.239C42.8831 190.705 43.0661 190.17 43.2491 189.636C43.4302 189.108 43.6132 188.563 43.5704 188.007C43.4843 186.887 42.5357 186.058 41.6718 185.34C40.7163 184.546 39.7318 183.512 39.8051 182.173C39.8617 181.14 40.4452 180.207 41.1266 179.428C41.8081 178.649 42.6046 177.971 43.2265 177.143C43.6742 176.548 44.0358 175.84 44.0058 175.096C43.9866 174.633 43.8179 174.19 43.6181 173.772C43.1891 172.876 42.6051 172.046 42.3261 171.092C42.0472 170.139 42.1525 168.976 42.9175 168.342C43.5458 167.822 44.4417 167.79 45.2516 167.885C46.0009 167.972 46.7182 168.348 47.3573 168.747C49.4242 170.037 50.511 172.618 52.7221 173.641C53.5747 174.036 54.5248 174.161 55.4202 174.447C56.3157 174.732 57.217 175.242 57.5949 176.103C58.3397 177.799 56.6999 179.761 57.1934 181.547C57.6303 183.127 59.1107 183.798 59.8881 185.242C60.228 185.874 60.2777 186.586 60.1823 187.296C60.0199 188.499 59.7985 189.377 59.1511 190.692C58.6158 191.778 57.1093 193.831 57.1093 193.831C57.1093 193.831 47.7888 199.703 47.6963 199.749Z" fill="#EA2A3A"/>
<g opacity="0.3">
<path d="M47.6963 199.749C47.0926 200.057 44.7266 198.638 44.2789 198.303C43.5123 197.731 42.9082 196.945 42.5239 196.071C42.0772 195.054 42.0058 193.985 42.2164 192.895C42.3256 192.331 42.5131 191.784 42.6996 191.239C42.8831 190.705 43.0661 190.17 43.2491 189.636C43.4302 189.108 43.6132 188.563 43.5704 188.007C43.4843 186.887 42.5357 186.058 41.6718 185.34C40.7163 184.546 39.7318 183.512 39.8051 182.173C39.8617 181.14 40.4452 180.207 41.1266 179.428C41.8081 178.649 42.6046 177.971 43.2265 177.143C43.6742 176.548 44.0358 175.84 44.0058 175.096C43.9866 174.633 43.8179 174.19 43.6181 173.772C43.1891 172.876 42.6051 172.046 42.3261 171.092C42.0472 170.139 42.1525 168.976 42.9175 168.342C43.5458 167.822 44.4417 167.79 45.2516 167.885C46.0009 167.972 46.7182 168.348 47.3573 168.747C49.4242 170.037 50.511 172.618 52.7221 173.641C53.5747 174.036 54.5248 174.161 55.4202 174.447C56.3157 174.732 57.217 175.242 57.5949 176.103C58.3397 177.799 56.6999 179.761 57.1934 181.547C57.6303 183.127 59.1107 183.798 59.8881 185.242C60.228 185.874 60.2777 186.586 60.1823 187.296C60.0199 188.499 59.7985 189.377 59.1511 190.692C58.6158 191.778 57.1093 193.831 57.1093 193.831C57.1093 193.831 47.7888 199.703 47.6963 199.749Z" fill="white"/>
</g>
<path d="M52.7871 196.656C52.7836 196.656 52.7797 196.655 52.7797 196.655C52.6301 196.642 52.5228 196.512 52.5361 196.367C53.5039 185.875 49.1354 174.018 45.7032 170.464C45.6019 170.359 45.6043 170.191 45.7096 170.089C45.8154 169.988 45.9827 169.991 46.0845 170.096C49.5856 173.721 54.0451 185.776 53.0645 196.415C53.0513 196.557 52.9283 196.663 52.7871 196.656Z" fill="white"/>
<path d="M51.7452 183.72C51.7196 183.718 51.6931 183.713 51.6675 183.704C48.3425 182.489 44.1413 182.093 44.1 182.089C43.9539 182.075 43.8471 181.946 43.8599 181.801C43.8737 181.655 43.9898 181.545 44.1482 181.561C44.191 181.565 48.4582 181.967 51.849 183.206C51.9868 183.256 52.0576 183.408 52.007 183.546C51.9666 183.658 51.8584 183.725 51.7452 183.72Z" fill="white"/>
<path d="M183.163 192.83L189.325 196.388C189.243 194.189 189.052 190.917 189.355 188.716C191.216 175.247 196.463 170.806 198.958 164.25C201.586 157.347 198.381 155.125 194.219 156.367C190.507 157.474 185.136 162.967 183.444 173.017C182.32 179.705 182.519 186.967 183.163 192.83Z" fill="#EA2A3A"/>
<path opacity="0.65" d="M183.163 192.83L189.325 196.388C189.243 194.189 189.052 190.917 189.355 188.716C191.216 175.247 196.463 170.806 198.958 164.25C201.586 157.347 198.381 155.125 194.219 156.367C190.507 157.474 185.136 162.967 183.444 173.017C182.32 179.705 182.519 186.967 183.163 192.83Z" fill="white"/>
<path d="M186.43 194.716L187.047 195.072C184.843 179.369 190.212 165.751 195.51 160.126C195.612 160.019 195.607 159.847 195.501 159.745C195.388 159.643 195.22 159.648 195.117 159.755C189.821 165.383 184.455 179.093 186.43 194.716Z" fill="white"/>
<path d="M187.594 195.388L191.062 197.39H191.065C192.908 191.962 194.802 189.787 197.152 186.217C199.294 182.968 201.784 180.956 203.108 178.672C204.28 176.649 205.161 174.109 203.419 172.572C200.647 170.123 197.03 172.713 194.542 175.512C192.393 177.933 188.07 184.372 187.594 195.388Z" fill="#EA2A3A"/>
<path opacity="0.3" d="M187.594 195.388L191.062 197.39H191.065C192.908 191.962 194.802 189.787 197.152 186.217C199.294 182.968 201.784 180.956 203.108 178.672C204.28 176.649 205.161 174.109 203.419 172.572C200.647 170.123 197.03 172.713 194.542 175.512C192.393 177.933 188.07 184.372 187.594 195.388Z" fill="white"/>
<path d="M189.018 196.209L189.522 196.502C190.978 187.917 196.809 177.983 200.434 175.637C200.561 175.555 200.598 175.383 200.514 175.254C200.431 175.125 200.262 175.087 200.133 175.172C196.381 177.605 190.562 187.492 189.018 196.209Z" fill="white"/>
<path d="M77.6106 221.836C94.7203 221.836 108.59 213.828 108.59 203.95C108.59 194.071 94.7203 186.063 77.6106 186.063C60.501 186.063 46.6309 194.071 46.6309 203.95C46.6309 213.828 60.501 221.836 77.6106 221.836Z" fill="#E0E0E0"/>
<path d="M165.511 221.836C181.887 221.836 195.163 214.171 195.163 204.717C195.163 195.262 181.887 187.597 165.511 187.597C149.135 187.597 135.86 195.262 135.86 204.717C135.86 214.171 149.135 221.836 165.511 221.836Z" fill="#E0E0E0"/>
<path d="M86.0399 57.2792C85.5873 57.0741 85.0485 57.0549 84.6593 57.0244C84.2121 56.989 84.0709 56.9004 83.9848 56.8035C82.8975 55.2478 81.1007 55.1882 80.0277 55.634C79.7644 54.5634 78.47 53.6345 77.0437 53.9474C77.0924 52.5565 75.3168 51.0618 73.7207 50.7223C72.1906 50.3966 70.8563 50.5334 69.983 51.5396C69.0482 49.7142 65.3843 49.2001 63.4015 50.1654C62.261 50.7209 61.2938 51.2906 60.8215 52.3356C60.5095 53.0254 60.3978 53.4844 60.3919 54.4128C59.619 53.7319 58.0722 53.5474 57.0399 53.9469C55.9275 54.3774 55.8429 55.2158 55.7878 56.0689C54.697 55.7939 53.9669 55.972 53.7622 56.0325C53.0611 56.2401 52.6572 56.7907 52.7531 57.2354C52.1987 57.2044 50.8772 57.6527 51.0292 58.2386C51.1999 58.8959 52.7089 58.8295 53.2722 58.8089C53.7386 58.7916 54.3433 58.6667 54.8501 58.5609C55.004 58.6372 55.4134 58.7188 55.6707 58.7169C56.6316 58.71 57.0385 58.2982 57.1925 57.9405C57.6613 58.9279 59.3302 59.6802 60.51 59.9823C62.7314 60.551 65.8753 60.2042 67.243 58.5437C67.3867 58.8423 67.6268 59.1208 67.9048 59.3501C68.4479 59.7973 69.1805 60.1102 69.9604 60.183C70.8725 60.2681 73.3212 60.3852 74.011 58.9348C74.4995 59.8991 76.6791 60.3385 78.3367 60.1033C78.9566 60.0152 79.6523 59.8002 80.1925 59.5429C80.6279 59.3358 80.8754 59.1336 81.2596 58.9033C81.5863 58.707 81.7334 58.7095 82.1693 58.8408C83.3068 59.1838 84.6274 59.324 85.7885 58.8369C86.7154 58.4487 86.9088 57.6728 86.0399 57.2792Z" fill="#F0F0F0"/>
<path d="M51.8661 81.6625C51.438 81.4682 50.9283 81.4505 50.5603 81.4215C50.1377 81.388 50.0038 81.3044 49.9222 81.2128C48.8939 79.7418 47.195 79.6852 46.1805 80.1073C45.9321 79.0953 44.7075 78.2166 43.3589 78.5123C43.4051 77.1971 41.7255 75.7836 40.217 75.4624C38.77 75.1544 37.5085 75.2838 36.6829 76.2353C35.7988 74.5093 32.3342 74.0228 30.4596 74.9359C29.3817 75.4609 28.467 75.9996 28.0198 76.988C27.7246 77.6404 27.6193 78.0744 27.6139 78.9521C26.8833 78.3081 25.4201 78.1339 24.4444 78.5113C23.3921 78.9182 23.3124 79.7113 23.2602 80.5181C22.229 80.2579 21.5382 80.4261 21.3448 80.4837C20.6821 80.68 20.2998 81.2005 20.3909 81.6212C19.8664 81.5917 18.6172 82.0158 18.7604 82.5698C18.9217 83.1912 20.3485 83.1287 20.8814 83.109C21.3227 83.0928 21.8939 82.9747 22.3731 82.8748C22.5188 82.9467 22.9055 83.0239 23.149 83.0219C24.0577 83.0155 24.4425 82.6264 24.5881 82.2879C25.0314 83.2217 26.6097 83.9331 27.7251 84.2185C29.8259 84.7562 32.7986 84.4286 34.0921 82.8586C34.2279 83.141 34.4547 83.4042 34.7179 83.6207C35.2315 84.0433 35.9243 84.3395 36.6618 84.4084C37.5243 84.4891 39.8396 84.5998 40.492 83.2281C40.954 84.1402 43.015 84.5555 44.5825 84.3331C45.169 84.25 45.8268 84.0463 46.3375 83.8032C46.7493 83.6074 46.9835 83.416 47.3466 83.1981C47.6555 83.0126 47.7948 83.015 48.2066 83.139C49.2826 83.4633 50.5308 83.5956 51.6289 83.1356C52.5047 82.7686 52.6877 82.035 51.8661 81.6625Z" fill="#F5F5F5"/>
<path d="M211.879 30.2914C211.451 30.0976 210.941 30.0794 210.573 30.0504C210.15 30.0169 210.017 29.9333 209.935 29.8418C208.907 28.3707 207.208 28.3141 206.193 28.7362C205.945 27.7237 204.72 26.8455 203.372 27.1412C203.418 25.8261 201.739 24.4125 200.23 24.0913C198.783 23.7833 197.521 23.9127 196.695 24.8642C195.812 23.1383 192.346 22.6517 190.472 23.5648C189.394 24.0898 188.479 24.629 188.032 25.617C187.737 26.2693 187.632 26.7033 187.626 27.581C186.896 26.937 185.432 26.7628 184.457 27.1402C183.405 27.5471 183.325 28.3402 183.273 29.1471C182.242 28.8868 181.551 29.055 181.358 29.1126C180.695 29.3089 180.313 29.8295 180.404 30.2501C179.879 30.2206 178.63 30.6447 178.773 31.1987C178.934 31.8201 180.361 31.7576 180.894 31.7379C181.335 31.7217 181.907 31.6036 182.386 31.5037C182.531 31.5756 182.918 31.6528 183.162 31.6513C184.07 31.6449 184.455 31.2558 184.601 30.9173C185.044 31.8511 186.622 32.5625 187.738 32.8479C189.839 33.3856 192.811 33.058 194.105 31.488C194.241 31.7704 194.467 32.0336 194.731 32.2501C195.244 32.6727 195.937 32.9689 196.674 33.0378C197.537 33.1185 199.852 33.2292 200.505 31.8575C200.967 32.7696 203.028 33.1849 204.595 32.9625C205.182 32.8794 205.839 32.6757 206.35 32.4326C206.762 32.2368 206.996 32.0454 207.359 31.8275C207.668 31.642 207.807 31.6444 208.219 31.7684C209.295 32.0927 210.543 32.2255 211.642 31.765C212.518 31.3975 212.7 30.6639 211.879 30.2914Z" fill="#F5F5F5"/>
<path d="M219.15 139.291C218.806 139.291 218.459 139.228 218.118 139.102C217.736 138.963 217.398 138.759 217.112 138.497C216.825 138.235 216.603 137.934 216.45 137.604C216.297 137.273 216.211 136.913 216.194 136.531C216.177 136.15 216.24 135.762 216.381 135.38C216.516 135.009 216.718 134.676 216.979 134.39C217.242 134.104 217.542 133.882 217.872 133.728C218.202 133.576 218.566 133.488 218.954 133.468C219.345 133.447 219.737 133.508 220.12 133.649C220.503 133.79 220.839 133.996 221.118 134.263C221.394 134.527 221.614 134.828 221.771 135.157C221.93 135.49 222.021 135.856 222.041 136.244C222.062 136.635 222.004 137.021 221.866 137.393C221.726 137.777 221.519 138.113 221.252 138.392C220.986 138.67 220.682 138.887 220.347 139.037C220.012 139.187 219.649 139.271 219.27 139.288C219.23 139.291 219.19 139.291 219.15 139.291ZM216.912 135.574C216.798 135.886 216.747 136.2 216.76 136.507C216.773 136.813 216.842 137.103 216.964 137.366C217.085 137.628 217.263 137.868 217.494 138.079C217.726 138.291 218.001 138.457 218.313 138.57C218.623 138.684 218.934 138.736 219.245 138.723C219.553 138.709 219.846 138.641 220.115 138.521C220.383 138.401 220.628 138.225 220.843 138.001C221.056 137.779 221.222 137.509 221.335 137.199C221.445 136.899 221.492 136.588 221.476 136.274C221.459 135.96 221.387 135.667 221.26 135.401C221.132 135.135 220.953 134.889 220.727 134.673C220.501 134.457 220.238 134.296 219.924 134.181C219.614 134.067 219.301 134.015 218.983 134.034C218.668 134.051 218.374 134.121 218.11 134.243C217.849 134.364 217.608 134.542 217.397 134.773C217.187 135.003 217.024 135.273 216.912 135.574ZM222.349 132.981L219.118 131.795L219.882 128.78C220.015 128.194 220.287 127.717 220.686 127.369C221.063 127.04 221.507 126.771 222.007 126.569C222.485 126.376 223.011 126.204 223.57 126.06C224.102 125.924 224.623 125.749 225.118 125.542C225.602 125.34 226.047 125.071 226.441 124.744C226.819 124.429 227.114 123.986 227.32 123.427C227.449 123.075 227.499 122.734 227.47 122.414C227.441 122.091 227.345 121.784 227.186 121.501C227.026 121.216 226.797 120.955 226.506 120.724C226.21 120.49 225.86 120.298 225.465 120.153C224.874 119.936 224.347 119.815 223.896 119.795C223.434 119.774 223.03 119.792 222.691 119.847C222.337 119.905 222.034 119.963 221.781 120.022C221.467 120.096 221.208 120.093 220.989 120.013C220.499 119.832 220.204 119.477 220.135 118.983L219.644 116.692L219.869 116.605C220.365 116.412 220.902 116.245 221.465 116.109C222.029 115.974 222.623 115.89 223.231 115.859C223.838 115.827 224.483 115.861 225.143 115.958C225.806 116.056 226.503 116.237 227.214 116.499C228.188 116.856 229.038 117.323 229.742 117.888C230.452 118.457 231.012 119.11 231.405 119.828C231.801 120.55 232.031 121.34 232.086 122.177C232.141 123.013 232.004 123.885 231.68 124.767C231.365 125.626 230.96 126.336 230.477 126.876C229.998 127.412 229.479 127.85 228.933 128.178C228.393 128.503 227.829 128.757 227.259 128.932L225.701 129.409C225.228 129.553 224.803 129.713 224.436 129.883C224.109 130.034 223.875 130.242 223.721 130.52L222.349 132.981ZM219.793 131.44L222.09 132.283L223.224 130.244C223.436 129.864 223.763 129.569 224.196 129.368C224.587 129.188 225.037 129.019 225.535 128.867L227.091 128.39C227.618 128.229 228.139 127.994 228.64 127.693C229.138 127.394 229.613 126.992 230.053 126.499C230.489 126.012 230.857 125.363 231.148 124.571C231.445 123.764 231.57 122.971 231.52 122.214C231.47 121.46 231.264 120.749 230.908 120.1C230.55 119.447 230.038 118.851 229.387 118.329C228.731 117.803 227.934 117.366 227.019 117.03C226.344 116.782 225.685 116.609 225.06 116.518C224.437 116.426 223.831 116.394 223.26 116.423C222.686 116.452 222.127 116.532 221.598 116.659C221.144 116.769 220.708 116.899 220.3 117.048L220.693 118.884C220.736 119.189 220.891 119.372 221.184 119.48C221.293 119.52 221.456 119.517 221.652 119.469C221.916 119.408 222.231 119.347 222.6 119.287C222.978 119.225 223.423 119.206 223.923 119.228C224.431 119.251 225.016 119.383 225.66 119.619C226.112 119.785 226.515 120.007 226.858 120.278C227.207 120.555 227.484 120.873 227.681 121.222C227.879 121.576 227.999 121.959 228.035 122.362C228.072 122.766 228.01 123.19 227.852 123.621C227.612 124.275 227.26 124.799 226.804 125.178C226.366 125.542 225.873 125.84 225.337 126.064C224.817 126.282 224.27 126.465 223.711 126.608C223.177 126.745 222.675 126.908 222.221 127.093C221.779 127.271 221.389 127.508 221.06 127.794C220.752 128.063 220.541 128.439 220.434 128.912L219.793 131.44Z" fill="#E0E0E0"/>
<path d="M35.6813 132.159C35.5682 132.159 35.454 132.157 35.3399 132.154C34.5925 132.133 33.8102 132.03 33.0132 131.848C32.2108 131.665 31.3763 131.376 30.533 130.989C29.3778 130.459 28.384 129.806 27.5791 129.051C26.7687 128.288 26.1493 127.439 25.7385 126.527C25.3252 125.61 25.122 124.626 25.1343 123.603C25.1466 122.581 25.3966 121.532 25.8763 120.487C26.3437 119.468 26.905 118.642 27.5451 118.031C28.1808 117.423 28.8553 116.939 29.5505 116.592C30.2423 116.247 30.9542 115.991 31.6666 115.833L33.6257 115.397C34.2235 115.265 34.7642 115.109 35.2351 114.935C35.6646 114.776 35.9829 114.534 36.2078 114.195L38.0975 111.35L41.8471 113.071L40.6372 116.646C40.4203 117.342 40.0488 117.891 39.5356 118.271C39.0471 118.634 38.4818 118.918 37.856 119.116C37.2503 119.309 36.59 119.467 35.8944 119.588C35.2228 119.706 34.563 119.87 33.9347 120.078C33.3143 120.282 32.7357 120.572 32.2147 120.94C31.7114 121.296 31.2981 121.821 30.9862 122.5C30.7894 122.929 30.6924 123.351 30.6979 123.757C30.7028 124.168 30.7923 124.563 30.9645 124.934C31.1377 125.307 31.3985 125.658 31.7399 125.975C32.0853 126.295 32.5035 126.569 32.9812 126.788C33.6936 127.115 34.3372 127.315 34.8926 127.385C35.4594 127.456 35.9647 127.472 36.3928 127.437C36.8262 127.401 37.2095 127.358 37.5317 127.309C37.9116 127.252 38.2186 127.278 38.467 127.393C39.0279 127.649 39.3428 128.097 39.3777 128.684L39.7541 131.494L39.5229 131.564C38.896 131.753 38.222 131.906 37.5224 132.017C36.9285 132.111 36.3116 132.159 35.6813 132.159ZM38.2997 112.067L36.6781 114.509C36.3888 114.944 35.9696 115.267 35.4309 115.466C34.9364 115.65 34.3701 115.812 33.7468 115.95L31.7891 116.386C31.1215 116.534 30.4528 116.774 29.8024 117.098C29.1579 117.42 28.5301 117.871 27.9353 118.44C27.3478 119.002 26.8278 119.77 26.3904 120.723C25.9441 121.696 25.7114 122.667 25.6996 123.61C25.6888 124.55 25.8753 125.453 26.2541 126.295C26.6339 127.139 27.2101 127.927 27.9663 128.638C28.7259 129.352 29.6691 129.97 30.7682 130.474C31.5766 130.846 32.3736 131.122 33.1377 131.297C33.8988 131.47 34.6447 131.569 35.3546 131.589C36.069 131.608 36.7667 131.564 37.4304 131.458C38.0203 131.364 38.589 131.241 39.1258 131.089L38.8119 128.739C38.7868 128.337 38.6023 128.08 38.2279 127.908C38.0847 127.842 37.8791 127.828 37.6144 127.87C37.2784 127.921 36.8828 127.965 36.4365 128.002C35.9667 128.041 35.4235 128.023 34.8193 127.948C34.2068 127.872 33.5077 127.655 32.7416 127.304C32.2088 127.059 31.7414 126.752 31.3512 126.391C30.9552 126.023 30.6511 125.613 30.4469 125.172C30.2413 124.729 30.1335 124.256 30.1286 123.765C30.1212 123.276 30.2359 122.771 30.4676 122.264C30.8218 121.494 31.2981 120.892 31.8846 120.479C32.4513 120.078 33.0806 119.762 33.7542 119.541C34.4085 119.325 35.0953 119.153 35.794 119.032C36.4646 118.914 37.0998 118.762 37.6818 118.577C38.2476 118.398 38.7573 118.142 39.1952 117.817C39.6099 117.51 39.9125 117.057 40.0955 116.472L41.1435 113.375L38.2997 112.067ZM42.3922 110.932C42.3592 110.932 42.3253 110.932 42.2918 110.931C41.8195 110.919 41.3526 110.808 40.9024 110.602C40.4532 110.396 40.068 110.115 39.7566 109.767C39.4486 109.422 39.2124 109.039 39.053 108.626C38.8931 108.209 38.8178 107.76 38.8301 107.289C38.8419 106.817 38.9497 106.356 39.1494 105.92C39.3561 105.47 39.637 105.084 39.9848 104.773C40.3307 104.464 40.7184 104.232 41.1371 104.082C41.5563 103.933 42.0035 103.863 42.4611 103.881C42.9245 103.897 43.386 104.009 43.8333 104.214C44.2805 104.42 44.6697 104.698 44.9905 105.041C45.3098 105.382 45.5499 105.766 45.7034 106.179C45.8569 106.592 45.9262 107.035 45.91 107.497C45.8943 107.959 45.7816 108.421 45.5759 108.869C45.3762 109.304 45.1012 109.686 44.7592 110.006C44.4163 110.326 44.0325 110.566 43.6207 110.719C43.2379 110.861 42.8252 110.932 42.3922 110.932ZM42.3307 104.445C41.9819 104.445 41.6449 104.502 41.328 104.615C40.9787 104.74 40.654 104.935 40.3627 105.196C40.0729 105.454 39.8382 105.778 39.6646 106.156C39.4963 106.522 39.4063 106.908 39.3959 107.304C39.3856 107.7 39.4481 108.076 39.5814 108.422C39.7157 108.77 39.9169 109.096 40.1787 109.389C40.4375 109.679 40.7607 109.914 41.1386 110.087C41.5179 110.261 41.911 110.355 42.3061 110.364C42.7076 110.374 43.08 110.315 43.4234 110.188C43.7649 110.061 44.0847 109.861 44.373 109.592C44.6608 109.323 44.8925 109.001 45.0608 108.633C45.235 108.253 45.3304 107.865 45.3437 107.477C45.357 107.09 45.2994 106.72 45.172 106.377C45.0446 106.034 44.8438 105.715 44.5757 105.428C44.3061 105.139 43.9764 104.904 43.5966 104.73C43.2178 104.556 42.8291 104.461 42.4409 104.448C42.4045 104.446 42.3676 104.445 42.3307 104.445Z" fill="#E0E0E0"/>
<path d="M223.547 74.471C223.319 74.471 223.095 74.4503 222.875 74.4085C222.402 74.3189 221.972 74.1477 221.595 73.8993C221.219 73.6513 220.893 73.3271 220.627 72.9364C220.361 72.5448 220.174 72.0956 220.072 71.6006H220.072C219.973 71.1195 219.968 70.6373 220.058 70.1669C220.147 69.6956 220.318 69.2651 220.567 68.8882C220.814 68.5128 221.14 68.1832 221.536 67.9082C221.933 67.6322 222.387 67.4403 222.883 67.3384C223.378 67.2366 223.867 67.2351 224.335 67.3345C224.797 67.4329 225.226 67.6066 225.607 67.8511C225.991 68.0986 226.326 68.4243 226.6 68.8198C226.876 69.2174 227.066 69.6631 227.165 70.1448C227.267 70.6412 227.269 71.1303 227.17 71.5977C227.071 72.0631 226.891 72.4902 226.636 72.8665C226.381 73.2434 226.054 73.5686 225.665 73.8343C225.272 74.1015 224.823 74.2879 224.329 74.3898C224.067 74.4439 223.805 74.471 223.547 74.471ZM220.627 71.487C220.714 71.9081 220.871 72.2884 221.095 72.6176C221.319 72.9472 221.592 73.2193 221.906 73.4264C222.22 73.6331 222.581 73.7763 222.979 73.8515C223.378 73.9263 223.795 73.9214 224.216 73.8348C224.636 73.7487 225.016 73.5908 225.346 73.3659C225.677 73.1411 225.953 72.8661 226.168 72.5487C226.382 72.2328 226.532 71.8732 226.616 71.4796C226.699 71.0889 226.697 70.6781 226.611 70.2585C226.527 69.8521 226.367 69.4772 226.135 69.1431C225.902 68.8085 225.622 68.5345 225.301 68.3278C224.978 68.1207 224.613 67.9726 224.218 67.8885C223.825 67.8053 223.414 67.8073 222.997 67.8934C222.576 67.9795 222.193 68.1409 221.86 68.3736C221.523 68.6073 221.247 68.8858 221.039 69.2002C220.833 69.5141 220.69 69.8747 220.614 70.2722C220.539 70.6703 220.543 71.0791 220.627 71.487ZM220.607 65.8526L219.441 62.1665C219.2 61.4595 219.174 60.782 219.367 60.1572C219.552 59.5599 219.847 58.9823 220.243 58.4401C220.629 57.9127 221.078 57.3813 221.58 56.8598C222.066 56.3535 222.513 55.8168 222.906 55.2643C223.295 54.7191 223.598 54.1272 223.807 53.5044C224.008 52.9032 224.032 52.2168 223.877 51.4645C223.78 50.9893 223.603 50.5794 223.351 50.2464C223.098 49.9088 222.784 49.6353 222.415 49.4321C222.044 49.2274 221.615 49.0956 221.138 49.0405C220.657 48.9849 220.144 49.0114 219.615 49.1207C218.827 49.2825 218.173 49.5069 217.669 49.7878C217.156 50.0742 216.727 50.3659 216.395 50.6552C216.055 50.9504 215.764 51.2185 215.529 51.4522C215.251 51.7297 214.982 51.8931 214.708 51.9492C214.089 52.0751 213.561 51.898 213.177 51.4355L211.165 49.3421L211.31 49.1492C211.716 48.6105 212.18 48.0756 212.691 47.5605C213.201 47.0449 213.78 46.5618 214.411 46.1249C215.043 45.6885 215.753 45.2988 216.521 44.9667C217.294 44.6321 218.159 44.3655 219.093 44.1736C220.37 43.9114 221.588 43.8484 222.712 43.9857C223.844 44.1239 224.871 44.4506 225.764 44.9564C226.661 45.4636 227.426 46.1539 228.036 47.0075C228.645 47.8611 229.074 48.8796 229.311 50.0343C229.542 51.1575 229.579 52.1809 229.422 53.0763C229.265 53.9639 229 54.7732 228.635 55.4822C228.271 56.1877 227.837 56.8303 227.346 57.3927L225.989 58.942C225.574 59.4138 225.22 59.8709 224.936 60.3014C224.676 60.695 224.559 61.09 224.579 61.5082L224.741 65.0029L220.607 65.8526ZM220.641 48.4466C220.832 48.4466 221.019 48.4569 221.204 48.4786C221.753 48.5426 222.253 48.6966 222.689 48.9371C223.128 49.1792 223.502 49.5054 223.804 49.9064C224.106 50.3069 224.318 50.7935 224.432 51.3514C224.606 52.2025 224.577 52.9878 224.344 53.6849C224.117 54.3609 223.788 55.0035 223.367 55.5939C222.957 56.1681 222.493 56.7265 221.988 57.2529C221.504 57.7557 221.071 58.2679 220.7 58.7752C220.341 59.2667 220.074 59.7877 219.908 60.325C219.751 60.8322 219.775 61.3926 219.98 61.9894L220.993 65.1948L224.154 64.5463L224.014 61.5353C223.989 61.001 224.141 60.4809 224.464 59.9904C224.762 59.5378 225.132 59.06 225.563 58.569L226.92 57.0202C227.382 56.4923 227.79 55.8876 228.132 55.2234C228.471 54.5651 228.717 53.8094 228.864 52.9784C229.009 52.1543 228.973 51.2023 228.757 50.1489C228.536 49.0724 228.139 48.1263 227.576 47.3376C227.014 46.5514 226.311 45.9168 225.486 45.4503C224.657 44.9815 223.701 44.6784 222.644 44.549C221.582 44.4191 220.424 44.4796 219.208 44.7296C218.312 44.9136 217.484 45.1689 216.747 45.4872C216.012 45.8051 215.335 46.1765 214.734 46.5918C214.131 47.009 213.579 47.4695 213.094 47.96C212.662 48.3964 212.264 48.8466 211.91 49.3002L213.6 51.0596C213.867 51.3789 214.178 51.4818 214.595 51.3952C214.755 51.3622 214.934 51.2471 215.129 51.0522C215.374 50.8087 215.674 50.5322 216.023 50.2286C216.385 49.9138 216.846 49.5994 217.393 49.2938C217.948 48.9844 218.657 48.7398 219.501 48.5662C219.889 48.4865 220.271 48.4466 220.641 48.4466Z" fill="#E0E0E0"/>
<path d="M36.1785 57.0602C35.5723 57.0602 34.9435 57.013 34.3025 56.9185C33.4577 56.7945 32.5701 56.5628 31.6653 56.2302C30.427 55.7756 29.3451 55.1813 28.4486 54.463C27.5483 53.7402 26.8378 52.9117 26.339 52.0005C25.8366 51.0859 25.5468 50.0842 25.476 49.0229C25.4061 47.9641 25.5798 46.8591 25.9916 45.7373C26.3921 44.6461 26.9062 43.7452 27.5188 43.0599C28.1274 42.3789 28.7867 41.823 29.4779 41.4072C30.1652 40.9949 30.8816 40.6727 31.6068 40.4498L33.6023 39.8387C34.2114 39.6533 34.7605 39.4486 35.2343 39.2292C35.6687 39.0279 35.9802 38.7495 36.1868 38.3785L37.9093 35.2848L41.9171 36.7569L40.9563 40.5497C40.788 41.2867 40.449 41.884 39.9501 42.3184C39.4739 42.7337 38.9125 43.0736 38.2808 43.329C37.6687 43.577 36.9981 43.7954 36.2872 43.977C35.6009 44.1531 34.9303 44.3774 34.2936 44.6441C33.6668 44.9063 33.0897 45.2547 32.5785 45.6798C32.084 46.0906 31.6968 46.6697 31.4282 47.4008C31.2585 47.8628 31.1925 48.3105 31.2314 48.7321C31.2698 49.1592 31.3957 49.5631 31.6048 49.9341C31.8159 50.3095 32.1155 50.6524 32.4963 50.954C32.8811 51.2586 33.3377 51.509 33.8523 51.6984C34.6173 51.9793 35.3012 52.1353 35.8852 52.1619C36.4796 52.1894 37.005 52.1663 37.4468 52.094C37.8985 52.0207 38.2921 51.9449 38.6173 51.8691C39.005 51.7776 39.3218 51.7806 39.588 51.8785C40.1858 52.0984 40.5459 52.5323 40.6296 53.1341L41.2461 56.0078L41.0212 56.0954C40.387 56.3419 39.7017 56.5549 38.9853 56.7276C38.2695 56.8998 37.5137 57.0071 36.7384 57.0464C36.5534 57.0553 36.3664 57.0602 36.1785 57.0602ZM38.1686 35.9829L36.6818 38.6535C36.4191 39.1263 36.0122 39.4929 35.4724 39.7428C34.975 39.9726 34.4014 40.1871 33.7677 40.3804L31.7731 40.991C31.0917 41.2006 30.4176 41.5037 29.7697 41.8928C29.1271 42.2791 28.5116 42.7986 27.9414 43.4372C27.3766 44.069 26.8993 44.9083 26.523 45.9322C26.1392 46.9791 25.9768 48.0059 26.0413 48.985C26.1067 49.9626 26.3739 50.8856 26.8359 51.7274C27.2988 52.5732 27.9611 53.3446 28.8034 54.0202C29.6516 54.7001 30.6799 55.2644 31.8607 55.6979C32.73 56.0172 33.5792 56.2396 34.3856 56.3581C35.1895 56.4762 35.9713 56.518 36.7098 56.4806C37.4498 56.4428 38.1711 56.3404 38.8525 56.1766C39.4596 56.03 40.0431 55.8538 40.5897 55.6526L40.0717 53.2325C40.0126 52.8143 39.7976 52.5594 39.3922 52.4103C39.2353 52.3528 39.0188 52.3562 38.7462 52.4207C38.4077 52.4994 38.0013 52.5771 37.5379 52.6529C37.0577 52.7311 36.4928 52.7562 35.8592 52.7272C35.2171 52.6977 34.4761 52.5304 33.657 52.2298C33.0857 52.0197 32.577 51.7397 32.1446 51.3978C31.7057 51.0504 31.3578 50.6514 31.1109 50.2121C30.8624 49.7712 30.7128 49.2906 30.6676 48.7838C30.6208 48.278 30.6981 47.7472 30.8973 47.206C31.2004 46.3799 31.6447 45.7196 32.2169 45.2443C32.7719 44.7833 33.3967 44.4055 34.0757 44.1221C34.7369 43.8451 35.4341 43.6114 36.1475 43.4284C36.8338 43.2527 37.4798 43.0427 38.0682 42.8035C38.6414 42.5718 39.1492 42.2648 39.5782 41.8909C39.9846 41.5366 40.263 41.0407 40.4057 40.4168L41.2426 37.1121L38.1686 35.9829ZM42.0323 34.4887C41.6047 34.4887 41.1762 34.411 40.756 34.2565C40.2744 34.0799 39.8532 33.8201 39.5034 33.486C39.1575 33.1554 38.8815 32.7781 38.6837 32.3638C38.4854 31.9466 38.3713 31.4885 38.3452 31.0009C38.3192 30.5109 38.3934 30.0263 38.5647 29.5594C38.7413 29.0777 39.0006 28.6566 39.3346 28.3072C39.6667 27.9599 40.0485 27.6883 40.4692 27.4994C40.8894 27.311 41.3445 27.2052 41.8212 27.184C42.3073 27.1629 42.7885 27.2421 43.2667 27.4177C43.7464 27.5939 44.171 27.8492 44.5287 28.1774C44.8869 28.505 45.1658 28.8814 45.3582 29.2962C45.5496 29.7094 45.6573 30.1616 45.6785 30.6403C45.6992 31.1195 45.6204 31.6056 45.4438 32.0853C45.2726 32.5507 45.0202 32.9689 44.6925 33.3266C44.3648 33.6848 43.9885 33.9638 43.5737 34.1557C43.1599 34.347 42.7039 34.4568 42.2173 34.4828C42.1563 34.4868 42.0943 34.4887 42.0323 34.4887ZM41.9727 27.7478C41.9304 27.7478 41.8886 27.7483 41.8463 27.7503C41.4419 27.768 41.0566 27.8576 40.7019 28.0165C40.3482 28.1754 40.0264 28.4047 39.745 28.6994C39.465 28.9921 39.2466 29.3473 39.097 29.7552C38.9524 30.1493 38.8899 30.5582 38.912 30.9709C38.9337 31.3837 39.0291 31.7704 39.1954 32.1193C39.3637 32.4706 39.5988 32.7928 39.8955 33.0762C40.1888 33.3566 40.5435 33.5746 40.9514 33.7242C41.3607 33.8742 41.7769 33.9377 42.1887 33.9175C42.6025 33.8954 42.9892 33.8029 43.3371 33.642C43.6829 33.4816 43.9988 33.2469 44.2753 32.9448C44.5528 32.6418 44.7678 32.287 44.9134 31.891C45.0635 31.4816 45.1304 31.0693 45.1132 30.6659C45.0955 30.262 45.0049 29.8812 44.8445 29.5348C44.6842 29.1884 44.4495 28.8726 44.1469 28.5956C43.8433 28.3176 43.4817 28.1001 43.0719 27.9496C42.7058 27.8157 42.3368 27.7478 41.9727 27.7478Z" fill="#E0E0E0"/>
<path d="M183.867 182.414C183.141 179.736 182.156 177.229 180.917 174.899C179.675 172.566 178.221 170.434 176.556 168.504C174.887 166.572 173.089 165.049 171.151 163.93C169.213 162.811 167.395 162.246 165.699 162.237C164.003 162.226 162.55 162.679 161.338 163.595C160.126 164.511 149.088 170.454 147.877 171.37C146.665 172.286 145.712 173.673 145.017 175.53C144.321 177.39 143.973 179.573 143.973 182.074C143.973 184.661 144.321 187.262 145.017 189.883C145.712 192.507 146.665 194.975 147.877 197.29C149.088 199.604 150.542 201.715 152.238 203.622C153.935 205.528 155.752 207.044 157.691 208.163C159.629 209.282 161.426 209.853 163.095 209.889C164.76 209.923 166.214 209.491 167.456 208.593C168.695 207.693 179.675 201.716 180.917 200.819C182.155 199.918 183.14 198.57 183.866 196.767C184.594 194.967 184.957 192.777 184.957 190.19C184.958 187.689 184.594 185.095 183.867 182.414Z" fill="#EA2A3A"/>
<path opacity="0.4" d="M183.867 182.414C183.141 179.736 182.156 177.229 180.917 174.899C179.675 172.566 178.221 170.434 176.556 168.504C174.887 166.572 173.089 165.049 171.151 163.93C169.213 162.811 167.395 162.246 165.699 162.237C164.003 162.226 162.55 162.679 161.338 163.595C160.126 164.511 149.088 170.454 147.877 171.37C146.665 172.286 145.712 173.673 145.017 175.53C144.321 177.39 143.973 179.573 143.973 182.074C143.973 184.661 144.321 187.262 145.017 189.883C145.712 192.507 146.665 194.975 147.877 197.29C149.088 199.604 150.542 201.715 152.238 203.622C153.935 205.528 155.752 207.044 157.691 208.163C159.629 209.282 161.426 209.853 163.095 209.889C164.76 209.923 166.214 209.491 167.456 208.593C168.695 207.693 179.675 201.716 180.917 200.819C182.155 199.918 183.14 198.57 183.866 196.767C184.594 194.967 184.957 192.777 184.957 190.19C184.958 187.689 184.594 185.095 183.867 182.414Z" fill="white"/>
<path d="M207.76 86.7751C206.064 80.7102 203.673 74.9888 200.581 69.6117C197.494 64.2366 193.781 59.3265 189.455 54.8901C185.125 50.4518 180.326 46.7121 175.054 43.6686C171.177 41.43 167.574 39.8162 164.245 38.8214C160.916 37.8265 157.824 37.3158 154.979 37.2858C152.134 37.2612 149.484 37.6258 147.031 38.3894C144.58 39.1554 142.321 40.1517 140.262 41.3857L126.802 49.1603L132.706 65.0459C133.675 68.0285 135.25 70.1465 137.431 71.4055C138.342 71.931 139.369 72.0215 140.518 71.6742C141.671 71.3317 143.078 71.0129 144.743 70.7236C146.408 70.4319 148.435 70.4747 150.832 70.8466C153.223 71.2191 156.147 72.4014 159.597 74.394C161.958 75.7568 164.153 77.4675 166.181 79.527C168.209 81.589 169.953 83.8664 171.406 86.3604C172.86 88.8538 173.994 91.4855 174.81 94.2604C175.631 97.0348 176.038 99.8722 176.038 102.78C176.038 107.303 175.327 110.787 173.904 113.238C173.347 114.197 172.72 115.052 172.055 115.851C170.858 116.4 169.716 117 168.654 117.673C167.33 118.509 157.159 124.202 155.193 125.448C153.224 126.692 151.649 128.409 150.468 130.593C149.289 132.778 148.878 135.873 149.242 139.876L150.786 160.51L166.14 169.375L179.601 161.6L181.687 145.12C181.859 143.766 182.248 142.628 182.812 141.665C182.965 141.599 183.107 141.537 183.261 141.47C183.999 141.148 184.719 140.773 185.42 140.345C186.98 139.393 197.905 133.14 198.478 132.81C200.199 131.82 201.809 130.516 203.31 128.899C205.307 126.744 206.972 123.807 208.305 120.095C209.637 116.384 210.301 111.457 210.301 105.319C210.301 99.0225 209.452 92.84 207.76 86.7751Z" fill="#EA2A3A"/>
<path opacity="0.4" d="M207.76 86.7751C206.064 80.7102 203.673 74.9888 200.581 69.6117C197.494 64.2366 193.781 59.3265 189.455 54.8901C185.125 50.4518 180.326 46.7121 175.054 43.6686C171.177 41.43 167.574 39.8162 164.245 38.8214C160.916 37.8265 157.824 37.3158 154.979 37.2858C152.134 37.2612 149.484 37.6258 147.031 38.3894C144.58 39.1554 142.321 40.1517 140.262 41.3857L126.802 49.1603L132.706 65.0459C133.675 68.0285 135.25 70.1465 137.431 71.4055C138.342 71.931 139.369 72.0215 140.518 71.6742C141.671 71.3317 143.078 71.0129 144.743 70.7236C146.408 70.4319 148.435 70.4747 150.832 70.8466C153.223 71.2191 156.147 72.4014 159.597 74.394C161.958 75.7568 164.153 77.4675 166.181 79.527C168.209 81.589 169.953 83.8664 171.406 86.3604C172.86 88.8538 173.994 91.4855 174.81 94.2604C175.631 97.0348 176.038 99.8722 176.038 102.78C176.038 107.303 175.327 110.787 173.904 113.238C173.347 114.197 172.72 115.052 172.055 115.851C170.858 116.4 169.716 117 168.654 117.673C167.33 118.509 157.159 124.202 155.193 125.448C153.224 126.692 151.649 128.409 150.468 130.593C149.289 132.778 148.878 135.873 149.242 139.876L150.786 160.51L166.14 169.375L179.601 161.6L181.687 145.12C181.859 143.766 182.248 142.628 182.812 141.665C182.965 141.599 183.107 141.537 183.261 141.47C183.999 141.148 184.719 140.773 185.42 140.345C186.98 139.393 197.905 133.14 198.478 132.81C200.199 131.82 201.809 130.516 203.31 128.899C205.307 126.744 206.972 123.807 208.305 120.095C209.637 116.384 210.301 111.457 210.301 105.319C210.301 99.0225 209.452 92.84 207.76 86.7751Z" fill="white"/>
<path d="M167.456 182.673C166.214 180.34 164.76 178.209 163.095 176.278C161.426 174.346 159.629 172.823 157.691 171.704C155.752 170.585 153.935 170.02 152.238 170.01C150.542 170 149.088 170.453 147.877 171.369C146.665 172.285 145.712 173.673 145.017 175.53C144.321 177.39 143.973 179.573 143.973 182.074C143.973 184.661 144.321 187.262 145.017 189.883C145.712 192.506 146.665 194.974 147.877 197.289C149.088 199.604 150.542 201.715 152.238 203.621C153.935 205.528 155.752 207.043 157.691 208.162C159.629 209.281 161.426 209.853 163.095 209.889C164.76 209.923 166.214 209.491 167.456 208.593C168.695 207.692 169.679 206.343 170.407 204.541C171.134 202.741 171.497 200.552 171.497 197.965C171.497 195.464 171.133 192.87 170.407 190.189C169.68 187.51 168.695 185.004 167.456 182.673Z" fill="#FAFAFA"/>
<path d="M152.185 171.378H152.23C153.678 171.386 155.286 171.895 157.007 172.888C158.798 173.922 160.498 175.363 162.06 177.171C163.651 179.016 165.061 181.083 166.25 183.315C167.436 185.547 168.391 187.981 169.088 190.547C169.78 193.099 170.13 195.595 170.13 197.965C170.13 200.361 169.797 202.402 169.14 204.03C168.515 205.58 167.678 206.743 166.657 207.485C165.689 208.185 164.584 208.524 163.276 208.524C163.226 208.524 163.174 208.524 163.125 208.523C161.694 208.493 160.096 207.973 158.375 206.98C156.576 205.941 154.855 204.505 153.261 202.713C151.646 200.898 150.243 198.86 149.089 196.655C147.931 194.443 147.006 192.046 146.339 189.532C145.677 187.037 145.341 184.528 145.341 182.075C145.341 179.748 145.663 177.707 146.298 176.01C146.899 174.406 147.708 173.212 148.703 172.46C149.665 171.731 150.804 171.378 152.185 171.378ZM152.185 170.01C150.512 170.01 149.076 170.463 147.878 171.369C146.666 172.285 145.713 173.673 145.017 175.53C144.321 177.39 143.974 179.573 143.974 182.075C143.974 184.662 144.321 187.262 145.017 189.883C145.713 192.507 146.666 194.975 147.878 197.29C149.089 199.605 150.543 201.715 152.239 203.622C153.935 205.528 155.752 207.044 157.691 208.163C159.63 209.282 161.426 209.854 163.095 209.89C163.156 209.891 163.216 209.892 163.276 209.892C164.866 209.892 166.259 209.459 167.457 208.594C168.695 207.694 169.68 206.344 170.407 204.542C171.134 202.742 171.497 200.552 171.497 197.965C171.497 195.464 171.134 192.87 170.407 190.189C169.68 187.51 168.696 185.004 167.457 182.673C166.214 180.34 164.76 178.209 163.095 176.279C161.426 174.346 159.63 172.824 157.691 171.705C155.753 170.586 153.935 170.021 152.239 170.011C152.221 170.01 152.202 170.01 152.185 170.01Z" fill="#EA2A3A"/>
<path d="M194.3 94.5498C192.604 88.4849 190.212 82.7639 187.121 77.3864C184.034 72.0113 180.321 67.1011 175.995 62.6647C171.665 58.2264 166.865 54.4867 161.594 51.4427C157.717 49.2046 154.114 47.5909 150.785 46.596C147.455 45.6012 144.363 45.0905 141.519 45.0605C138.673 45.0359 136.024 45.4 133.57 46.1636C131.12 46.9296 128.861 47.9259 126.802 49.1598L132.706 65.0455C133.675 68.028 135.25 70.1461 137.431 71.4051C138.342 71.9306 139.369 72.0211 140.518 71.6738C141.671 71.3313 143.078 71.0125 144.743 70.7232C146.408 70.4315 148.435 70.4743 150.832 70.8462C153.223 71.2187 156.147 72.4009 159.597 74.3935C161.958 75.7564 164.153 77.4671 166.181 79.5266C168.209 81.5885 169.953 83.866 171.406 86.36C172.86 88.8534 173.994 91.4851 174.81 94.26C175.631 97.0344 176.038 99.8718 176.038 102.779C176.038 107.302 175.327 110.786 173.904 113.237C172.482 115.686 170.708 117.611 168.59 119.009C166.471 120.412 164.197 121.522 161.778 122.345C159.355 123.168 157.159 124.201 155.193 125.447C153.224 126.691 151.649 128.408 150.468 130.593C149.289 132.777 148.878 135.872 149.242 139.876L150.786 160.51L166.14 169.375L168.227 152.895C168.531 150.489 169.454 148.697 170.997 147.53C172.541 146.363 174.374 145.322 176.495 144.408C178.613 143.491 180.869 142.511 183.26 141.469C185.652 140.427 187.848 138.829 189.849 136.673C191.846 134.517 193.511 131.581 194.843 127.87C196.176 124.158 196.84 119.232 196.84 113.094C196.84 106.797 195.992 100.615 194.3 94.5498Z" fill="#FAFAFA"/>
<path d="M141.25 46.4271L141.505 46.4281C144.216 46.4566 147.206 46.954 150.394 47.9065C153.611 48.8679 157.15 50.4566 160.911 52.6278C166.049 55.594 170.795 59.2924 175.017 63.62C179.248 67.959 182.922 72.8199 185.936 78.0686C188.954 83.3177 191.325 88.987 192.984 94.9181C194.636 100.84 195.473 106.956 195.473 113.095C195.473 119.051 194.829 123.866 193.557 127.409C192.292 130.931 190.708 133.736 188.847 135.745C186.985 137.751 184.921 139.256 182.714 140.218C180.324 141.259 178.069 142.239 175.955 143.154C173.743 144.106 171.798 145.212 170.173 146.441C168.333 147.832 167.222 149.946 166.871 152.724L165.042 167.163L152.095 159.688L150.603 139.753C150.266 136.043 150.625 133.18 151.671 131.243C152.734 129.276 154.165 127.715 155.925 126.603C157.783 125.425 159.901 124.428 162.218 123.64C164.751 122.779 167.149 121.604 169.343 120.151C171.632 118.64 173.564 116.545 175.087 113.925C176.647 111.237 177.405 107.592 177.405 102.78C177.405 99.7476 176.973 96.7503 176.122 93.8751C175.278 91.0072 174.089 88.2471 172.588 85.6724C171.086 83.0958 169.258 80.7062 167.156 78.5685C165.053 76.4322 162.739 74.63 160.281 73.2106C156.701 71.1437 153.593 69.894 151.042 69.4965C149.63 69.277 148.316 69.1658 147.138 69.1658C146.194 69.1658 145.309 69.2372 144.509 69.3774C142.816 69.6716 141.342 70.0037 140.123 70.3663C139.797 70.4647 139.489 70.5149 139.207 70.5149C138.813 70.5149 138.455 70.419 138.115 70.2227C136.219 69.128 134.875 67.2967 134.007 64.6242L133.998 64.5971L133.988 64.5706L128.488 49.7722C130.174 48.8556 132.016 48.0827 133.977 47.4696C136.2 46.7779 138.647 46.4271 141.25 46.4271ZM141.25 45.0598C138.506 45.0598 135.947 45.4249 133.57 46.1644C131.12 46.9304 128.861 47.9267 126.802 49.1606L132.706 65.0463C133.675 68.0288 135.25 70.1469 137.431 71.4059C137.98 71.7228 138.571 71.8812 139.207 71.8812C139.625 71.8812 140.062 71.8123 140.518 71.6746C141.671 71.3321 143.078 71.0133 144.743 70.724C145.472 70.5961 146.27 70.5326 147.138 70.5326C148.253 70.5326 149.484 70.6379 150.832 70.847C153.223 71.2194 156.147 72.4017 159.597 74.3943C161.958 75.7572 164.153 77.4679 166.181 79.5274C168.209 81.5893 169.953 83.8668 171.406 86.3608C172.86 88.8542 173.994 91.4859 174.81 94.2608C175.631 97.0352 176.038 99.8725 176.038 102.78C176.038 107.303 175.327 110.787 173.904 113.238C172.482 115.686 170.708 117.612 168.59 119.009C166.471 120.413 164.197 121.523 161.778 122.346C159.354 123.169 157.159 124.201 155.193 125.448C153.223 126.692 151.648 128.409 150.468 130.594C149.289 132.778 148.877 135.873 149.241 139.877L150.785 160.511L166.139 169.375L168.227 152.895C168.531 150.49 169.453 148.698 170.997 147.531C172.54 146.364 174.373 145.323 176.495 144.409C178.613 143.492 180.869 142.512 183.26 141.47C185.651 140.428 187.847 138.83 189.849 136.674C191.845 134.518 193.511 131.582 194.843 127.87C196.175 124.159 196.84 119.233 196.84 113.095C196.84 106.797 195.992 100.615 194.3 94.5501C192.604 88.4852 190.212 82.7642 187.121 77.3867C184.034 72.0116 180.321 67.1014 175.995 62.665C171.665 58.2267 166.865 54.487 161.594 51.443C157.717 49.2049 154.114 47.5912 150.785 46.5963C147.455 45.6015 144.363 45.0908 141.519 45.0608C141.429 45.0603 141.339 45.0598 141.25 45.0598Z" fill="#EA2A3A"/>
<path d="M118.36 101.332C118.057 101.161 117.612 101.294 117.125 101.541C117.373 101.302 117.543 101.086 117.549 100.934C117.567 100.48 117.283 100.235 116.389 100.639C115.494 101.043 113.266 102.164 111.493 102.157C111.174 102.155 110.535 102.235 110.272 102.021C110.168 101.936 110.138 101.835 110.153 101.73C110.192 101.47 110.51 101.181 110.669 101.033C110.883 100.835 111.083 100.623 111.27 100.399C111.478 100.149 111.671 99.8771 111.767 99.5661C111.863 99.2552 111.849 98.8965 111.666 98.6274C111.567 98.4828 111.407 98.3671 111.25 98.4842C110.626 98.9487 109.987 99.3915 109.361 99.853C108.767 100.29 108.13 100.72 107.622 101.256C107.037 101.874 106.563 102.733 105.714 103.589C104.865 104.444 103.958 105.21 101.849 106.606C100.685 107.376 97.6887 109.332 97.6887 109.332C97.6887 109.332 93.4604 102.597 91.8117 99.9843C89.1726 95.8023 87.8152 94.7903 85.1323 94.562V105.933C85.1323 105.933 89.1721 111.715 91.3089 114.46C93.9062 117.798 95.3713 118.523 96.4104 118.502C99.668 118.395 102.424 114.473 107.496 108.84C107.909 108.381 108.892 107.502 110.436 107.505C111.041 107.506 111.72 107.461 112.118 107.442C112.6 107.419 113.47 107.246 113.935 107.12C114.92 106.853 114.928 106.927 116.355 105.968C116.531 105.849 117.244 105.312 117.204 105.104C117.169 104.928 117.028 104.837 116.85 104.824C116.595 104.804 116.391 104.936 115.881 105.067C116.433 104.764 117.223 104.311 117.655 103.654C117.72 103.555 117.789 103.396 117.789 103.278C117.79 103.167 117.741 102.851 117.567 102.78C117.567 102.78 117.853 102.491 118.105 102.245C118.31 102.044 118.741 101.548 118.36 101.332Z" fill="#FFA8A7"/>
<path d="M115.881 105.066C115.429 105.24 114.984 105.394 114.519 105.496C114.059 105.617 113.586 105.683 113.116 105.807C113.601 105.83 114.084 105.773 114.56 105.668C115.03 105.545 115.498 105.37 115.881 105.066Z" fill="#F28F8F"/>
<path d="M107.327 105.371C107.341 105.279 107.365 105.188 107.401 105.102C107.471 104.937 107.579 104.781 107.695 104.645C107.928 104.374 108.23 104.157 108.559 104.019C109.271 103.721 110.194 103.803 110.807 104.286C110.824 104.299 110.839 104.373 110.8 104.362C110.09 104.163 109.374 104 108.661 104.296C108.072 104.54 107.669 105.102 107.434 105.679C107.412 105.733 107.355 105.711 107.349 105.66C107.335 105.555 107.311 105.479 107.327 105.371Z" fill="#F28F8F"/>
<path d="M112.656 103.26C113.419 103.091 114.175 102.794 114.904 102.515C115.603 102.246 116.286 101.927 116.967 101.619C116.976 101.615 116.984 101.635 116.977 101.64C116.307 102.111 115.585 102.455 114.818 102.741C114.111 103.005 113.399 103.131 112.663 103.276C112.656 103.277 112.65 103.261 112.656 103.26Z" fill="#F28F8F"/>
<path d="M112.584 104.585C113.346 104.415 114.102 104.119 114.831 103.84C115.111 103.732 115.388 103.617 115.663 103.497C115.933 103.38 116.212 103.27 116.467 103.125C116.546 103.08 116.625 103.036 116.704 102.991C116.805 102.934 116.897 102.868 117.008 102.829C117.122 102.789 117.243 102.77 117.363 102.773C117.375 102.774 117.39 102.782 117.385 102.792C117.234 102.81 117.09 102.867 116.957 102.941C116.868 102.99 116.784 103.047 116.701 103.106C116.626 103.159 116.552 103.2 116.473 103.247C116.232 103.394 115.982 103.528 115.727 103.651C115.407 103.806 115.078 103.942 114.745 104.067C114.038 104.331 113.326 104.456 112.589 104.601C112.583 104.602 112.577 104.586 112.584 104.585Z" fill="#F28F8F"/>
<path d="M97.6892 109.331C95.9765 110.192 94.9399 111.97 94.6653 113.934C94.4169 112.029 94.5817 110.047 97.2415 108.618L97.6892 109.331Z" fill="#F28F8F"/>
<path d="M80.0817 138.785C80.096 138.761 80.1063 138.735 80.1216 138.713L106.996 96.2143V96.2138C107.354 95.5963 108.116 95.2204 109.197 95.2332C111.359 95.2583 113.978 96.8273 115.045 98.7372C115.579 99.6922 115.624 100.552 115.266 101.169L91.6639 145.627C91.6521 145.65 91.6358 145.671 91.6231 145.693C91.6009 145.733 91.5842 145.774 91.5611 145.813C89.69 149.037 85.5872 150.101 82.3981 148.19C79.2089 146.279 78.1403 142.116 80.0114 138.893C80.033 138.855 80.0591 138.822 80.0817 138.785Z" fill="#455A64"/>
<path d="M115.045 98.7377C116.113 100.648 115.226 102.175 113.064 102.15C110.902 102.125 108.283 100.556 107.216 98.6462C106.148 96.7363 107.035 95.2086 109.197 95.2337C111.359 95.2588 113.977 96.8273 115.045 98.7377Z" fill="#121212"/>
<path d="M88.8933 141.949L110.998 101.72C111.691 101.984 112.398 102.139 113.062 102.152C114.138 102.162 114.896 101.799 115.259 101.182L91.6628 145.627C91.651 145.65 91.6348 145.67 91.622 145.693C91.5998 145.732 91.5831 145.774 91.56 145.813C89.6889 149.037 85.5861 150.101 82.397 148.19C84.4614 148.8 86.7349 145.914 88.8933 141.949Z" fill="#37474F"/>
<path d="M117.762 83.1481C119.07 83.1634 120.653 84.112 121.298 85.2667C121.621 85.8443 121.649 86.3639 121.432 86.7373L121.433 86.7378L113.632 100.19L113.631 100.19C113.414 100.563 112.954 100.79 112.3 100.782C110.993 100.767 109.409 99.8186 108.764 98.6639C108.441 98.0862 108.414 97.5667 108.63 97.1933L116.431 83.741C116.648 83.3676 117.109 83.1403 117.762 83.1481Z" fill="#E0E0E0"/>
<path opacity="0.25" d="M116.83 94.6766L119.292 90.4297C117.817 89.148 116.38 87.7419 114.986 86.2334L112.459 90.5906C113.868 92.0459 115.328 93.4122 116.83 94.6766Z" fill="black"/>
<path d="M95.4874 44.993C95.5356 64.4378 109.247 88.0523 126.11 97.7304C131.014 100.547 135.642 101.872 139.739 101.862C142.694 101.854 145.37 101.155 147.677 99.8126L157.494 94.1123C163.007 90.9118 166.405 84.0745 166.38 74.3501C166.332 54.9004 152.62 31.2908 135.757 21.6082C127.323 16.7718 119.699 16.3305 114.191 19.5261L104.354 25.2411C98.8562 28.4406 95.4633 35.2779 95.4874 44.993ZM110.152 39.2803C110.141 34.6698 110.984 30.8612 112.561 28.0288C115.844 28.0741 119.63 29.275 123.525 31.5127C130.955 35.7803 138.001 43.2163 143.365 52.4532C148.73 61.69 151.694 71.4945 151.716 80.0617C151.727 84.6772 150.884 88.4858 149.303 91.3133C146.019 91.268 142.239 90.0621 138.344 87.8294C130.914 83.5618 123.868 76.1257 118.503 66.8889C113.138 57.6521 110.174 47.8475 110.152 39.2803Z" fill="#EA2A3A"/>
<path opacity="0.1" d="M151.867 36.141L137.827 44.2944C139.813 46.8066 141.673 49.5396 143.365 52.4532C143.696 53.0225 144.017 53.5942 144.33 54.1674L158.34 46.0317C156.443 42.5596 154.264 39.2298 151.867 36.141ZM130.191 36.2778C131.644 37.5255 133.063 38.8908 134.439 40.3589L148.539 32.171C147.212 30.7054 145.835 29.3169 144.414 28.019L130.191 36.2778Z" fill="white"/>
<path opacity="0.25" d="M147.716 99.7879L157.494 94.1117C163.007 90.9113 166.405 84.0739 166.38 74.3496C166.379 73.9766 166.364 73.6037 166.353 73.2258L156.541 78.9261C156.552 79.304 156.557 79.6769 156.558 80.0499C156.583 89.7457 153.2 96.5776 147.716 99.7879Z" fill="black"/>
<path d="M100.331 44.9807C100.352 53.5479 103.316 63.3574 108.681 72.5942C114.046 81.831 121.092 89.2671 128.522 93.5298C132.513 95.8201 136.386 97.0264 139.728 97.0181C143.98 97.0077 147.258 94.9846 149.302 91.3133C146.019 91.2681 142.238 90.0622 138.344 87.8295C130.913 83.5619 123.867 76.1258 118.503 66.889C113.138 57.6522 110.174 47.8476 110.152 39.2799C110.141 34.6694 110.984 30.8608 112.561 28.0284C112.479 28.0239 112.396 28.0239 112.319 28.0239C104.783 28.0436 100.305 34.3845 100.331 44.9807Z" fill="#EA2A3A"/>
<path opacity="0.25" d="M100.331 44.9807C100.352 53.5479 103.316 63.3574 108.681 72.5942C114.046 81.831 121.092 89.2671 128.522 93.5298C132.513 95.8201 136.386 97.0264 139.728 97.0181C143.98 97.0077 147.258 94.9846 149.302 91.3133C146.019 91.2681 142.238 90.0622 138.344 87.8295C130.913 83.5619 123.867 76.1258 118.503 66.889C113.138 57.6522 110.174 47.8476 110.152 39.2799C110.141 34.6694 110.984 30.8608 112.561 28.0284C112.479 28.0239 112.396 28.0239 112.319 28.0239C104.783 28.0436 100.305 34.3845 100.331 44.9807Z" fill="black"/>
<path opacity="0.3" d="M104.901 42.3396C104.922 50.9068 107.886 60.7163 113.251 69.9531C118.616 79.19 125.661 86.626 133.092 90.8887C137.083 93.1795 140.956 94.3854 144.297 94.377C145.363 94.3746 146.36 94.2461 147.299 93.9967H147.304C148.062 93.2346 148.728 92.3367 149.303 91.3133C150.884 88.4858 151.727 84.6772 151.715 80.0618C151.694 71.4946 148.73 61.69 143.365 52.4532C138 43.2164 130.954 35.7803 123.524 31.5127C119.63 29.2751 115.844 28.0736 112.56 28.0288C112.478 28.0244 112.396 28.0244 112.318 28.0244C111.248 28.0269 110.241 28.1553 109.302 28.4146C106.452 31.2746 104.885 36.0583 104.901 42.3396Z" fill="white"/>
<path d="M95.4869 44.9935C95.5352 64.4393 109.246 88.0513 126.111 97.7319C142.976 107.413 156.608 99.4967 156.56 80.0509C156.512 60.6051 142.8 36.9935 125.935 27.313C109.071 17.6319 95.4382 25.5477 95.4869 44.9935ZM108.681 72.5947C103.316 63.3579 100.352 53.5484 100.331 44.9812C100.304 34.3845 104.783 28.0436 112.319 28.0249C112.396 28.0249 112.479 28.0244 112.561 28.0293C115.844 28.0746 119.63 29.2755 123.525 31.5132C130.955 35.7808 138.001 43.2169 143.365 52.4537C148.73 61.6905 151.694 71.495 151.716 80.0622C151.727 84.6777 150.884 88.4863 149.303 91.3138C147.259 94.9851 143.98 97.0082 139.728 97.0185C136.386 97.0269 132.514 95.821 128.522 93.5303C121.092 89.2676 114.046 81.8315 108.681 72.5947Z" fill="#EA2A3A"/>
<g opacity="0.3">
<path d="M95.4869 44.9935C95.5352 64.4393 109.246 88.0513 126.111 97.7319C142.976 107.413 156.608 99.4967 156.56 80.0509C156.512 60.6051 142.8 36.9935 125.935 27.313C109.071 17.6319 95.4382 25.5477 95.4869 44.9935ZM108.681 72.5947C103.316 63.3579 100.352 53.5484 100.331 44.9812C100.304 34.3845 104.783 28.0436 112.319 28.0249C112.396 28.0249 112.479 28.0244 112.561 28.0293C115.844 28.0746 119.63 29.2755 123.525 31.5132C130.955 35.7808 138.001 43.2169 143.365 52.4537C148.73 61.6905 151.694 71.495 151.716 80.0622C151.727 84.6777 150.884 88.4863 149.303 91.3138C147.259 94.9851 143.98 97.0082 139.728 97.0185C136.386 97.0269 132.514 95.821 128.522 93.5303C121.092 89.2676 114.046 81.8315 108.681 72.5947Z" fill="white"/>
</g>
<g opacity="0.3">
<path d="M149.096 52.8103C151.885 58.2971 154.059 64.1061 155.332 70.1203C155.945 73.1294 156.348 76.1872 156.391 79.2563C156.457 82.3219 156.168 85.4009 155.413 88.3657C154.64 91.3127 153.39 94.1875 151.391 96.5073C149.419 98.8359 146.714 100.529 143.744 101.254C140.773 102.002 137.624 101.851 134.649 101.137C131.651 100.463 128.805 99.2138 126.111 97.7319C128.776 99.2649 131.602 100.573 134.608 101.31C137.598 102.054 140.78 102.227 143.802 101.488C146.824 100.773 149.596 99.0647 151.621 96.7046C153.673 94.3533 154.965 91.4397 155.764 88.4562C156.51 85.4456 156.78 82.3367 156.693 79.2499C156.629 76.1591 156.203 73.0881 155.567 70.0706C154.916 67.0547 154.022 64.0948 152.946 61.2063C151.838 58.3291 150.547 55.5261 149.096 52.8103Z" fill="white"/>
</g>
<g opacity="0.3">
<path d="M112.319 28.0242C110.798 28.0203 109.265 28.2673 107.848 28.8557C106.432 29.4417 105.163 30.3711 104.135 31.5159C103.098 32.6598 102.342 34.0266 101.745 35.4387C101.134 36.8532 100.765 38.3552 100.488 39.8632C99.9901 42.8939 99.9512 45.9862 100.252 49.0336C100.534 52.0865 101.146 55.1005 101.978 58.0475C102.8 60.9986 103.878 63.8753 105.147 66.6615C106.415 69.4482 107.854 72.1581 109.473 74.7563C112.708 79.9514 116.589 84.7774 121.203 88.8423C123.522 90.8551 126.024 92.673 128.719 94.1697C131.414 95.6526 134.325 96.8388 137.42 97.2865C138.962 97.5128 140.554 97.5182 142.109 97.2216C143.656 96.9081 145.157 96.2759 146.419 95.3121C147.056 94.8398 147.635 94.2932 148.145 93.6919C148.657 93.0937 149.121 92.4531 149.504 91.7702C150.288 90.4142 150.843 88.9441 151.226 87.445C151.994 84.4394 152.137 81.3329 151.974 78.2761C151.788 75.2154 151.302 72.1797 150.53 69.2218C149.761 66.2634 148.755 63.3724 147.541 60.5749C146.337 57.773 144.935 55.0606 143.366 52.4525C146.306 57.7755 148.696 63.4256 150.069 69.336C150.784 72.2801 151.226 75.2882 151.363 78.3056C151.48 81.3181 151.29 84.3636 150.506 87.2541C150.116 88.6962 149.563 90.092 148.804 91.3604C148.054 92.6292 147.097 93.779 145.919 94.6415C144.754 95.5227 143.378 96.0934 141.945 96.3783C140.505 96.6449 139.014 96.6376 137.547 96.4142C134.606 95.9753 131.786 94.8186 129.17 93.3608C126.549 91.8898 124.109 90.0959 121.841 88.1141C117.294 84.1476 113.439 79.4072 110.221 74.2914C107.012 69.1648 104.436 63.6317 102.691 57.8409C101.828 54.944 101.18 51.9782 100.858 48.9721C100.517 45.9709 100.519 42.9239 100.954 39.94C101.191 38.4541 101.518 36.9712 102.083 35.5749C102.635 34.1801 103.341 32.8256 104.328 31.6842C105.306 30.5418 106.527 29.603 107.907 28.9895C109.283 28.3652 110.798 28.0685 112.319 28.0242Z" fill="white"/>
</g>
<path d="M82.5087 190.5L81.811 183.491L90.5012 182.656C90.5012 182.656 90.1057 188.183 90.1317 190.72C90.144 191.916 90.9691 194.173 90.9691 194.173C90.9691 194.173 87.532 195.916 85.7628 195.174C83.9935 194.432 82.8447 191.623 82.892 191.111L82.5087 190.5Z" fill="#FFA8A7"/>
<path d="M100.831 202.75C100.952 202.757 100.998 203.875 100.309 204.395C99.514 204.996 97.02 206.108 94.1039 205.569C91.1879 205.032 89.6494 204.048 88.5306 203.014C87.4118 201.98 85.8443 200.522 84.5321 200.159C83.3134 199.822 81.6982 198.744 81.3247 198.347C80.9518 197.949 81.1048 196.282 81.1048 196.282L100.831 202.75Z" fill="#121212"/>
<path d="M82.4459 189.831C82.4459 189.831 82.2851 189.904 82.1862 190.286C82.0686 190.742 81.8924 192.074 81.6538 192.819C81.3227 193.854 81.0157 195.996 81.1274 196.861C81.2391 197.725 83.5239 198.885 84.781 199.439C86.0656 200.004 87.5254 201.104 88.7957 202.261C90.1103 203.459 92.9462 204.787 94.8616 204.88C97.1282 204.989 99.7215 204.41 100.367 203.408C101.165 202.169 101.779 200.711 98.5097 198.992C97.8908 198.666 95.7339 197.24 94.9998 196.726C93.0151 195.335 91.6345 194.083 90.8198 191.772C90.7243 191.502 90.6254 191.203 90.3775 191.054C90.1871 190.94 89.9499 190.941 89.7275 190.959C89.1632 191.006 86.9133 191.184 86.3893 191.395C85.9259 191.581 85.272 191.792 85.2484 192.361C85.24 192.559 85.2868 192.755 85.3409 192.946C85.3743 193.064 85.397 193.22 85.2897 193.283C85.1884 193.343 85.0634 193.262 84.9802 193.179C84.6467 192.85 84.4125 192.437 84.1374 192.059C83.9903 191.856 83.521 191.208 83.3296 191.044C83.1559 190.894 82.9281 190.812 82.7761 190.645C82.5842 190.433 82.4396 190.097 82.4459 189.831Z" fill="#455A64"/>
<path d="M88.7955 202.261C88.2376 201.752 87.6422 201.258 87.042 200.812L87.0425 200.809C87.0425 200.809 90.8545 203.393 92.5135 202.409C93.5826 201.775 93.1428 200.908 93.1339 200.638C93.1246 200.368 96.8667 198.676 97.8724 198.615C98.1415 198.781 98.3644 198.924 98.5105 198.991C101.073 200.17 101.344 201.521 100.81 203.17C100.165 204.172 97.8266 205.113 94.8982 204.95C92.9834 204.843 90.1101 203.458 88.7955 202.261Z" fill="#37474F"/>
<path d="M92.9029 199.84C94.9437 200.779 94.03 201.113 93.4401 201.163C92.8502 201.212 89.453 198.995 87.4063 197.205C85.2715 195.339 83.6661 192.903 82.8725 192.217C82.5768 191.961 82.2604 191.65 81.98 191.359C82.0612 190.91 82.13 190.5 82.1851 190.286C82.284 189.904 82.4449 189.83 82.4449 189.83C82.4449 189.83 82.5832 190.433 82.7755 190.644C82.9276 190.811 83.1554 190.894 83.329 191.043C83.5204 191.207 83.9893 191.855 84.1369 192.059C84.4119 192.437 84.6461 192.849 84.9797 193.179C86.6712 195.56 90.8625 198.901 92.9029 199.84Z" fill="#37474F"/>
<path d="M93.3097 200.852C93.2635 200.85 93.2182 200.832 93.1818 200.799C93.0977 200.723 93.0918 200.594 93.1695 200.511C93.8007 199.833 96.6937 198.302 98.2209 198.554C98.334 198.573 98.4103 198.678 98.3911 198.789C98.3724 198.899 98.2774 198.972 98.153 198.956C96.7266 198.725 93.9744 200.249 93.474 200.787C93.4307 200.833 93.3702 200.855 93.3097 200.852Z" fill="#121212"/>
<path d="M91.5527 199.647C91.5064 199.644 91.4612 199.627 91.4248 199.594C91.3406 199.517 91.3352 199.388 91.4125 199.306C92.0432 198.628 94.9357 197.099 96.4638 197.35C96.577 197.368 96.6532 197.473 96.6341 197.584C96.6154 197.694 96.5115 197.77 96.3959 197.752C94.9691 197.522 92.2174 199.044 91.717 199.581C91.6732 199.628 91.6127 199.65 91.5527 199.647Z" fill="#121212"/>
<path d="M89.7911 198.5C89.7449 198.498 89.6996 198.48 89.6632 198.447C89.5786 198.371 89.5737 198.242 89.6509 198.159C90.2826 197.481 93.1751 195.949 94.7023 196.203C94.8154 196.221 94.8917 196.326 94.8725 196.437C94.8538 196.548 94.752 196.624 94.6344 196.605C93.2076 196.373 90.4558 197.897 89.9555 198.435C89.9122 198.481 89.8512 198.503 89.7911 198.5Z" fill="#121212"/>
<path d="M88.1725 197.211C88.1262 197.209 88.081 197.192 88.0446 197.158C87.9599 197.083 87.955 196.954 88.0323 196.871C88.663 196.193 91.5624 194.663 93.0836 194.914C93.1968 194.933 93.273 195.038 93.2539 195.149C93.2352 195.259 93.1323 195.334 93.0157 195.316C91.5909 195.086 88.8372 196.609 88.3373 197.146C88.2935 197.193 88.2325 197.215 88.1725 197.211Z" fill="#121212"/>
<path d="M86.5877 195.925C86.543 195.923 86.4982 195.906 86.4623 195.874C86.3767 195.799 86.3698 195.67 86.4455 195.586C87.3149 194.624 90.324 193.378 91.8507 193.629C91.9638 193.647 92.0401 193.753 92.0209 193.863C92.0022 193.975 91.8994 194.046 91.7828 194.031C90.4081 193.806 87.5265 195.004 86.755 195.857C86.7107 195.906 86.6487 195.929 86.5877 195.925Z" fill="#121212"/>
<path d="M67.628 194.429L69.4858 185.787L60.9718 184.57L60.9206 193.078C60.9206 193.078 60.2943 195.374 60.7809 196.154C61.2674 196.935 66.3828 197.696 66.8457 197.166C67.3087 196.637 67.628 194.429 67.628 194.429Z" fill="#FFA8A7"/>
<path d="M66.9162 208.018C66.712 209.954 66.3194 211.209 65.4934 212.266C64.6673 213.324 63.179 213.522 61.699 213.024C60.2191 212.526 58.3421 211.422 57.9795 209.693C57.6174 207.964 57.7488 206.821 58.1581 205.051L66.9162 208.018Z" fill="#121212"/>
<path d="M60.9211 193.078C60.3041 193.054 60.4862 194.573 60.222 197.183C59.9361 200.006 58.6869 202.232 58.2569 204.498C57.7664 207.088 57.8766 208.28 58.8562 209.986C59.8352 211.691 63.4623 213.655 65.3683 211.575C66.922 209.879 67.0637 207.826 67.0312 205.184C66.9973 202.452 66.9496 200.528 67.1552 198.48C67.352 196.523 68.154 194.706 67.628 194.429C67.5754 194.714 67.0721 196.7 66.7267 196.672C66.7045 196.417 66.7198 196.183 66.7488 195.93C66.7739 195.709 66.7621 195.463 66.6052 195.276C66.4467 195.086 65.8568 194.856 65.6089 194.785C65.0076 194.612 63.9341 194.402 63.3211 194.286C63.016 194.228 62.709 194.181 62.401 194.15C62.1516 194.126 61.8569 194.112 61.6178 194.164C61.4706 194.195 61.3329 194.272 61.2743 194.395C61.231 194.485 61.2345 194.59 61.2305 194.692C61.2237 194.874 61.1907 195.053 61.1326 195.224C61.1071 195.299 61.0426 195.387 60.9555 195.358C60.8847 195.335 60.8596 195.254 60.8615 195.188C60.8719 194.87 60.9014 193.245 60.9211 193.078Z" fill="#455A64"/>
<path d="M58.4255 203.765C58.3508 204.139 57.8898 206.612 58.6455 207.15C59.4632 207.732 59.9994 205.806 59.9994 205.806C59.9994 205.806 61.9832 205.489 64.7969 206.908C64.6346 207.3 65.0228 208.693 65.8178 208.494C66.6075 208.297 67.0277 205.448 67.0331 205.411C67.0537 207.943 66.8766 209.928 65.3681 211.575C63.4621 213.655 59.8351 211.691 58.856 209.985C57.8765 208.28 57.7663 207.087 58.2573 204.498C58.306 204.239 58.3631 203.997 58.4255 203.765Z" fill="#37474F"/>
<path d="M60.2173 205.999C60.1676 206.949 59.1191 206.512 59.1255 205.163C59.1319 203.815 59.806 200.532 60.052 198.324C60.1991 195.151 60.3044 193.054 60.9213 193.078C60.9179 193.11 60.9174 193.143 60.9144 193.175C60.9144 193.175 60.8687 194.982 60.8623 195.187C60.7713 197.126 60.7836 200.89 60.5257 202.644C60.2674 204.398 60.2665 205.049 60.2173 205.999Z" fill="#37474F"/>
<path d="M64.4671 206.845C64.7057 205.933 64.9001 205.32 65.1834 203.571C65.4644 201.836 66.4661 198.356 66.961 196.485C67.1239 196.177 67.6287 194.428 67.6287 194.428C68.0562 194.544 67.6464 196.21 67.4545 196.99C67.2626 197.77 67.0275 198.606 66.7888 199.724C66.1729 201.93 66.1453 205.23 65.7468 206.5C65.3483 207.771 64.2285 207.757 64.4671 206.845Z" fill="#37474F"/>
<path d="M64.8549 206.991C64.8263 206.986 64.7988 206.975 64.7727 206.961C64.751 206.948 62.5577 205.693 60.051 206.007C59.9275 206.022 59.8055 205.944 59.7779 205.834C59.7494 205.722 59.8266 205.62 59.9496 205.604C62.6315 205.268 64.9026 206.57 64.9985 206.626C65.1077 206.69 65.1466 206.817 65.0836 206.909C65.0364 206.979 64.9439 207.009 64.8549 206.991Z" fill="#121212"/>
<path d="M65.4486 204.983C65.4231 204.978 65.398 204.969 65.3739 204.956C65.3497 204.943 62.8799 203.626 60.0873 203.891C59.9638 203.9 59.8443 203.821 59.8197 203.709C59.7956 203.597 59.8767 203.498 60.0002 203.486C62.9537 203.208 65.4791 204.556 65.5854 204.613C65.6971 204.674 65.7404 204.799 65.6823 204.894C65.6366 204.968 65.5416 205.001 65.4486 204.983Z" fill="#121212"/>
<path d="M60.3128 201.946C60.2272 201.929 60.1514 201.869 60.1248 201.789C60.0889 201.679 60.1568 201.571 60.2778 201.548C63.068 201.023 65.744 202.562 65.8576 202.628C65.9673 202.692 66.0057 202.818 65.9427 202.911C65.8802 203.003 65.7395 203.024 65.6318 202.962C65.6062 202.948 63.006 201.455 60.4097 201.947C60.3772 201.953 60.3448 201.952 60.3128 201.946Z" fill="#121212"/>
<path d="M60.5431 200.114C60.4585 200.097 60.3842 200.039 60.3566 199.96C60.3183 199.849 60.3842 199.741 60.5037 199.717C63.5748 199.087 66.0909 200.724 66.1967 200.794C66.302 200.864 66.3315 200.992 66.2621 201.08C66.1927 201.168 66.0486 201.183 65.9462 201.113C65.9231 201.098 63.5015 199.528 60.6435 200.114C60.6095 200.121 60.5756 200.12 60.5431 200.114Z" fill="#121212"/>
<path d="M60.8116 198.056C60.7284 198.039 60.6546 197.983 60.6256 197.905C60.5858 197.796 60.6497 197.686 60.7693 197.66C63.6485 197.028 66.3855 198.724 66.5001 198.798C66.6073 198.864 66.6398 198.992 66.5729 199.082C66.507 199.172 66.3663 199.192 66.2585 199.122C66.2319 199.106 63.5874 197.469 60.9144 198.055C60.8805 198.063 60.845 198.063 60.8116 198.056Z" fill="#121212"/>
<path d="M64.6453 118.279C63.5328 123.514 62.8268 126.639 62.5538 140.118C62.2964 152.824 62.0391 156.912 61.987 158.513C61.9353 160.113 60.6138 163.687 60.3457 171.46C60.0726 179.382 60.9208 187.866 60.9208 187.866C60.9208 187.866 61.8089 189.22 64.8239 189.49C67.6051 189.739 69.2981 188.513 69.2981 188.513C69.2981 188.513 73.0216 173.472 74.0764 168.723C75.1312 163.973 77.9711 148.228 77.9711 148.228L79.0894 160.893C79.0894 160.893 78.3155 165.287 79.3019 172.44C80.2535 179.341 81.9809 186.068 81.9809 186.068C81.9809 186.068 83.1563 187.04 86.4044 186.853C88.7803 186.716 90.6376 185.992 90.6376 185.992C90.6376 185.992 91.7835 165.449 92.0236 157.616C92.2863 149.041 91.7348 130.158 90.5756 118.279H64.6453Z" fill="#37474F"/>
<path d="M80.4549 133.157L77.9718 148.228L79.0901 160.892L79.0183 148.058L81.2367 135.693C83.1265 135.239 87.4265 132.973 88.6078 129.737C85.6952 132.783 80.4549 133.157 80.4549 133.157ZM71.6225 124.348C71.9561 123.081 72.3084 121.822 72.7039 120.555C71.9925 121.679 71.4582 122.907 71.0026 124.153C70.5431 125.4 70.1834 126.679 69.869 127.967C69.5699 129.258 69.3214 130.56 69.1512 131.873C68.977 133.185 68.8599 134.509 68.889 135.839C69.2053 134.549 69.5 133.269 69.7923 131.989C70.0914 130.711 70.3714 129.431 70.6813 128.159C70.976 126.883 71.2963 125.615 71.6225 124.348ZM69.7244 123.398C70.1509 122.625 70.58 121.85 70.9716 121.034C70.3025 121.643 69.7165 122.327 69.1787 123.046C68.6366 123.762 68.1593 124.525 67.721 125.31C67.2968 126.102 66.9116 126.919 66.6154 127.771C66.3153 128.62 66.0846 129.501 66.0078 130.404L67.2137 128.03C67.6226 127.252 68.0275 126.476 68.454 125.709C68.8668 124.935 69.3027 124.173 69.7244 123.398ZM68.1515 173.719C67.4169 177.801 66.736 181.892 66.1077 185.991C67.0553 181.951 67.9497 177.903 68.7911 173.845C69.6442 169.785 70.4476 165.733 71.2447 161.648C71.99 157.554 72.4943 153.427 72.8943 149.298C73.3032 145.169 73.6013 141.033 73.8518 136.892C73.2806 141.001 72.7664 145.115 72.2493 149.225C71.718 153.333 71.1797 157.437 70.424 161.497C69.6471 165.552 68.8732 169.64 68.1515 173.719ZM88.2762 153.037C88.3358 154.942 88.442 156.564 88.4169 158.428C88.3913 160.292 88.2826 161.908 88.2118 163.867C88.1586 165.339 88.0794 167.752 88.0602 169.183C88.0091 173.003 88.0725 176.403 88.0627 180.118C88.3672 176.502 88.5547 172.892 88.7067 169.279C88.8583 165.666 89.1972 162.051 89.2317 158.441C89.2661 154.83 88.9291 151.23 88.754 147.634C88.5788 144.037 88.2536 140.457 87.8374 136.906C87.9648 140.306 88.0386 144.343 88.1094 147.58C88.1562 149.736 88.2167 151.131 88.2762 153.037Z" fill="#121212"/>
<path d="M62.8922 126.017C63.5727 120.793 64.1124 116.433 63.9087 114.459C63.4802 110.305 63.2406 109.551 62.8922 107.221C62.1336 102.146 64.4583 96.4362 65.6401 95.4364C65.6401 95.4364 71.7699 94.0883 72.9654 93.8901C76.3952 93.3208 78.1526 93.528 79.2689 93.6416C79.8195 93.6977 85.1336 94.5612 85.1336 94.5612C85.1336 94.5612 86.6957 96.2827 87.936 98.2595C89.3372 100.492 90.3965 102.132 90.6922 107.336C91.0401 113.464 91.1296 121.647 91.4031 125.475C86.5643 131.242 68.9625 131.029 62.8922 126.017Z" fill="#F5F5F5"/>
<path d="M84.341 83.068C84.4443 82.9228 84.6613 82.485 84.8724 82.387C87.4224 79.8055 86.5752 76.8914 85.6487 75.1118C83.5809 71.1394 78.9344 70.2883 76.1138 70.4442C71.7384 70.6858 68.8617 72.2883 66.9749 74.5948C64.9739 77.0405 64.755 80.4682 65.0054 84.2419C65.2086 87.3075 65.2696 90.7875 65.5284 94.2265C66.5424 94.2265 67.0669 94.1695 68.1631 94.0922C68.0814 93.1343 67.9776 91.1013 67.9776 91.1013C67.9776 91.1013 68.4007 93.5855 68.5011 94.0573C72.6639 93.7951 75.9175 93.4625 79.1721 92.9459C79.1893 92.3407 79.1637 91.2913 79.1809 90.6861C79.3192 91.2918 79.5878 93.0994 79.5878 93.0994C79.5878 93.0994 83.8269 92.4976 85.2522 91.8984C84.8694 90.137 84.5501 87.4423 84.494 87.034C84.3553 86.0239 84.2485 85.2042 84.1787 84.4525C84.128 83.9044 84.0852 83.4266 84.341 83.068Z" fill="#37474F"/>
<path d="M70.8234 88.4755C69.924 88.8627 68.9307 88.4642 68.266 87.7301C66.972 86.3013 66.8377 84.7997 67.345 83.7784C67.7622 82.9395 68.9686 82.4017 69.8748 82.8534C70.5887 83.2091 70.7216 83.6091 70.9764 84.2954C71.0915 84.6049 71.3193 84.7776 71.6578 84.6512C72.0214 84.5159 72.1415 84.1154 72.204 83.771C72.292 83.2864 72.2856 83.1397 72.2768 82.6468C72.2748 82.5508 72.2856 82.4135 72.326 82.3265C72.3776 82.2153 72.5533 82.1838 72.6561 82.1174C73.4428 81.6101 73.6239 81.2569 73.984 80.3929C73.9924 80.9828 73.8979 81.5742 73.706 82.1321C74.9306 81.7808 76.0248 81.0453 76.9099 80.1282C77.795 79.2116 78.4799 78.1174 79.0408 76.9735C79.3832 76.2739 79.6858 75.5383 79.7502 74.762C81.7606 75.5989 83.6882 77.3154 83.914 79.5811C83.9706 80.1508 84.1955 80.7693 84.3603 81.4866C85.5613 86.7053 84.6791 88.8558 83.5077 90.1709C82.8297 90.932 81.7556 91.5096 79.9982 91.7625L79.9707 94.0872C79.9707 94.0872 81.6326 97.8697 82.0218 101.903C82.0218 101.903 80.78 100.685 75.8905 97.4702C72.633 95.3281 70.9799 94.6235 70.9799 94.6235L71.6913 87.3114C71.6913 87.3114 71.6111 88.136 70.8234 88.4755Z" fill="#FFA8A7"/>
<path d="M79.2686 87.1619C79.2686 87.4679 79.0202 87.7164 78.7142 87.7164C78.4081 87.7164 78.1597 87.4679 78.1597 87.1619C78.1597 86.8559 78.4081 86.6074 78.7142 86.6074C79.0202 86.6074 79.2686 86.8559 79.2686 87.1619Z" fill="#B16668"/>
<path d="M83.1042 79.4714L81.272 79.1196C81.3507 78.606 81.825 78.2685 82.3312 78.3659C82.8365 78.4628 83.1829 78.9582 83.1042 79.4714Z" fill="#121212"/>
<path d="M76.8123 79.5354L75.1617 80.6582C74.832 80.2105 74.9339 79.596 75.3904 79.286C75.8455 78.976 76.4827 79.0877 76.8123 79.5354Z" fill="#121212"/>
<path d="M76.0345 82.0963C76.092 82.513 76.4763 82.8043 76.8925 82.7467C77.3093 82.6896 77.6005 82.3054 77.543 81.8886C77.4854 81.4719 77.1016 81.1806 76.6849 81.2382C76.2687 81.2958 75.9774 81.68 76.0345 82.0963Z" fill="#121212"/>
<path d="M81.4832 81.335C81.5408 81.7518 81.925 82.043 82.3413 81.9855C82.758 81.9279 83.0492 81.5441 82.9917 81.1274C82.9341 80.7107 82.5499 80.4194 82.1336 80.477C81.7174 80.5341 81.4261 80.9183 81.4832 81.335Z" fill="#121212"/>
<path d="M78.9521 80.6582L79.7861 85.2564L82.2382 84.1239L78.9521 80.6582Z" fill="#F28F8F"/>
<path d="M79.9976 91.7625C78.6608 91.8442 77.1135 91.8605 75.4235 91.2671C74.0808 90.7958 72.9285 89.1859 72.4336 88.1006C72.5325 89.243 73.0358 90.8681 74.7071 91.8122C77.1046 93.1667 80.003 92.8174 80.003 92.8174L79.9976 91.7625Z" fill="#F28F8F"/>
<path d="M65.6395 95.437C62.3672 95.9817 61.2666 96.9952 59.9146 100.539C58.6078 103.964 55.5825 111.673 56.478 116.847C57.0246 120.006 64.993 112.073 64.993 112.073L67.6375 103.803C67.6385 103.803 68.0001 96.6793 65.6395 95.437Z" fill="#FFA8A7"/>
<path d="M67.8537 97.9121C68.6493 100.211 68.8082 103.28 68.8082 103.28L64.9937 112.073C64.9937 112.073 63.8469 113.214 62.3935 114.459L56.9761 111.654C57.0504 110.311 60.1396 106.388 62.0506 104.385C63.467 102.901 66.3772 99.4786 67.8537 97.9121Z" fill="#F28F8F"/>
<path d="M66.5488 99.7752C67.2494 98.7843 67.9756 97.7688 68.3422 96.2908C68.7087 94.8129 69.8752 93.4545 70.2713 92.8946C70.6674 92.3347 71.5239 91.5125 72.1768 90.7268C72.8292 89.9416 73.0221 89.7231 73.9613 89.5642C75.2508 89.3458 76.2634 89.1426 76.7682 89.2966C77.2734 89.4506 77.2587 89.7817 76.8198 90.2289C76.3942 90.6624 75.4575 90.7844 75.1692 90.8715C74.8813 90.9585 74.2536 91.2321 74.2536 91.2321L73.06 92.991C73.06 92.991 75.086 93.3654 75.4826 93.5814C75.8791 93.7974 76.2191 94.8247 76.0449 95.391C76.0449 95.391 76.7878 95.8943 76.4966 96.6259C76.4966 96.6259 76.9507 97.2178 76.6398 97.7029C76.3288 98.188 75.6813 98.8291 75.4339 99.0416C75.1864 99.2542 74.2112 99.3078 74.2112 99.3078C74.2112 99.3078 73.3788 100.566 72.6841 101.081C71.9894 101.596 71.5338 101.563 70.7722 102.64L66.5488 99.7752Z" fill="#FFA8A7"/>
<path d="M73.9712 93.1729C74.4499 92.9663 74.5562 92.6416 75.0093 92.8133C75.4624 92.985 75.2888 93.5026 75.2888 93.5026L73.9712 93.1729Z" fill="#F28F8F"/>
<path d="M76.0303 95.4368C76.0303 95.4368 75.6584 95.0993 75.0453 94.8007C74.7137 94.6393 74.022 94.3948 74.022 94.3948C74.022 94.3948 74.8298 94.4573 75.4276 94.7274C76.0023 94.9871 76.0844 95.0546 76.0898 95.0595C76.0884 95.1795 76.0746 95.2922 76.0441 95.3911L76.0303 95.4368Z" fill="#F28F8F"/>
<path d="M76.0956 96.1187C76.2884 96.1989 76.4468 96.2845 76.5605 96.3529C76.5536 96.4395 76.5207 96.5841 76.4828 96.6791C76.2176 96.3022 75.2095 95.886 75.2095 95.886C75.2095 95.886 75.6902 95.9499 76.0956 96.1187Z" fill="#F28F8F"/>
<path d="M74.0283 99.5716C74.2418 99.143 74.724 98.3135 75.0177 97.979C75.3119 97.6444 75.8792 97.6941 76.0067 97.887C76.1346 98.0798 75.4773 98.0552 75.2854 98.1394C75.0945 98.2235 74.3639 99.0392 74.0283 99.5716Z" fill="#F28F8F"/>
<path d="M72.5044 92.9394C72.5044 92.9394 72.8754 92.4159 73.5396 91.5834C74.2033 90.7509 74.1624 90.872 74.807 90.744C75.4092 90.6245 76.6721 90.4016 77.0037 90.0134C76.9545 90.0818 76.8935 90.1536 76.8197 90.2289C76.3941 90.6624 75.4574 90.7844 75.1691 90.8715C74.8812 90.9586 74.2535 91.2321 74.2535 91.2321L73.0254 93.0422L72.5044 92.9394Z" fill="#F28F8F"/>
<path d="M66.5487 99.7751C64.3829 102.387 58.5478 108.669 57.1977 111.168C56.2639 112.897 56.0307 116.917 56.9822 118.378C57.9337 119.838 60.6589 119.224 62.8641 117.288C64.7671 115.617 66.3533 111.595 67.7354 108.733C69.1174 105.872 70.772 102.641 70.772 102.641L66.5487 99.7751Z" fill="#FFA8A7"/>
<path d="M66.5488 99.7749C67.03 99.1053 67.5112 98.4283 67.8644 97.678C68.0425 97.3045 68.1926 96.9173 68.3058 96.5188C68.4101 96.1178 68.5341 95.7277 68.7136 95.3562C69.06 94.6094 69.5363 93.9314 70.0356 93.2761C70.5035 92.5922 71.0851 92.0111 71.6445 91.4001C71.9259 91.098 72.1935 90.7792 72.4587 90.4648C72.7229 90.1514 73.0191 89.8601 73.4112 89.7445C73.796 89.6225 74.2122 89.5816 74.6176 89.5054C75.0245 89.4375 75.4314 89.3691 75.8393 89.3263C76.2358 89.2953 76.686 89.2456 76.9945 89.4739C77.1465 89.586 77.0899 89.7927 76.9748 89.9501C76.8587 90.1115 76.7209 90.2601 76.5502 90.3585C76.2073 90.5641 75.8019 90.6581 75.4024 90.7477C74.9847 90.8313 74.6117 91.0183 74.2289 91.1742L74.2127 91.1811L74.2024 91.1969L73.0132 92.9587L72.9645 93.031L73.0506 93.0478C73.7822 93.189 74.5207 93.3262 75.2312 93.5383C75.6075 93.6077 75.7837 93.9678 75.9096 94.3063C76.0257 94.6497 76.0931 95.0315 76.0016 95.3779L75.9933 95.4103L76.0203 95.43C76.2014 95.5634 76.3598 95.7449 76.4493 95.952C76.4966 96.0554 76.5167 96.168 76.5192 96.2797C76.5256 96.3924 76.4926 96.5031 76.4577 96.6098L76.4498 96.633L76.4631 96.6522C76.655 96.9223 76.7873 97.2903 76.6496 97.6002C76.4848 97.8949 76.2437 98.1636 76.011 98.4214C75.8919 98.5498 75.7699 98.6758 75.6444 98.7983C75.5126 98.9163 75.4043 99.057 75.2395 99.1038C74.9133 99.2125 74.5581 99.2479 74.2112 99.275L74.1945 99.2765L74.1857 99.2898C73.9613 99.6233 73.7232 99.9495 73.4688 100.261C73.2115 100.57 72.9424 100.874 72.6167 101.11C72.2939 101.35 71.9161 101.508 71.5923 101.753C71.2661 101.996 71.0059 102.312 70.7741 102.641C71.0103 102.315 71.2755 102.003 71.6027 101.767C71.9274 101.528 72.3072 101.376 72.6368 101.138C72.9704 100.904 73.2454 100.601 73.5082 100.294C73.7645 99.9884 74.0056 99.6701 74.2309 99.3404C74.5788 99.3144 74.9266 99.2819 75.2646 99.1712C75.4476 99.1181 75.5692 98.9646 75.6966 98.8519C75.824 98.7294 75.9475 98.6034 76.068 98.474C76.3062 98.2118 76.5443 97.954 76.7249 97.6347C76.8769 97.2863 76.7411 96.9075 76.5453 96.6197C76.5817 96.5105 76.6137 96.3968 76.6083 96.2797C76.6063 96.1557 76.5837 96.0303 76.533 95.9176C76.4385 95.6996 76.2831 95.5201 76.0966 95.3754C76.1871 95.0025 76.1182 94.6236 76.0036 94.2743C75.9406 94.0947 75.8604 93.9196 75.7468 93.7612C75.6863 93.6849 75.6238 93.6072 75.5332 93.553C75.4457 93.4999 75.3537 93.4709 75.2646 93.4399C74.5704 93.2293 73.8654 93.092 73.1588 92.9523L74.2973 91.2835C74.6718 91.1309 75.0432 90.9523 75.4329 90.8761C75.8343 90.7831 76.2491 90.6886 76.6176 90.4657C76.8056 90.355 76.9546 90.1937 77.0771 90.02C77.1367 89.9304 77.1928 89.8306 77.207 89.7105C77.2247 89.5905 77.1677 89.4557 77.0732 89.3853C76.8897 89.2407 76.6678 89.2033 76.4567 89.1905C76.2447 89.1792 76.0366 89.1954 75.8294 89.2161C75.4161 89.2613 75.0083 89.3322 74.6014 89.402C74.1965 89.4803 73.7847 89.5216 73.3812 89.6505C72.9675 89.774 72.6496 90.0903 72.3889 90.4047C72.1232 90.7231 71.861 91.0379 71.581 91.3415C71.029 91.9501 70.4406 92.5454 69.9766 93.2308C69.4797 93.8896 69.0024 94.5739 68.657 95.3301C68.4814 95.7055 68.3609 96.1075 68.2625 96.5065C68.1552 96.9041 68.0111 97.2908 67.8384 97.6652C67.4935 98.416 67.0216 99.0994 66.5488 99.7749Z" fill="#B16668"/>
</svg>
