<?xml version="1.0" standalone="no"?>
<!DOCTYPE svg PUBLIC "-//W3C//DTD SVG 20010904//EN"
 "http://www.w3.org/TR/2001/REC-SVG-20010904/DTD/svg10.dtd">
<svg version="1.0" xmlns="http://www.w3.org/2000/svg"
 width="359.000000pt" height="192.000000pt" viewBox="0 0 359.000000 192.000000"
 preserveAspectRatio="xMidYMid meet">
<metadata>
Created by potrace 1.16, written by Peter Selinger 2001-2019
</metadata>
<g transform="translate(0.000000,192.000000) scale(0.100000,-0.100000)"
fill="#000000" stroke="none">
<path d="M2507 1802 c-19 -9 -26 -19 -23 -29 5 -12 1 -14 -14 -10 -11 3 -20 1
-20 -4 0 -4 -8 -5 -17 -2 -16 6 -16 5 -4 -10 8 -10 11 -20 7 -24 -3 -3 -6 -1
-6 6 0 13 -31 11 -41 -2 -4 -5 -23 -9 -43 -9 -32 0 -35 -2 -25 -20 9 -16 7
-20 -10 -25 -11 -3 -19 -9 -16 -13 2 -4 -3 -14 -13 -23 -17 -16 -21 -17 -46
-17 -8 0 -17 -7 -20 -16 -9 -25 2 -30 18 -9 7 10 18 15 24 11 17 -10 15 -23
-5 -32 -10 -5 -493 -11 -1074 -14 l-1055 -5 -36 -24 c-19 -13 -46 -40 -59 -59
l-24 -36 0 -656 0 -656 24 -36 c13 -19 40 -46 59 -59 l36 -24 1065 -3 1066 -2
18 32 c27 52 67 249 55 272 -6 10 -16 53 -24 95 -26 148 -45 226 -56 230 -6 2
-24 16 -42 31 -29 26 -30 30 -19 62 7 18 17 69 22 113 5 45 15 93 20 108 13
32 64 58 158 78 l62 13 -5 120 c-2 67 -6 133 -8 147 -2 22 0 25 16 21 10 -2
30 -19 43 -36 30 -38 33 -26 4 14 -20 26 -21 37 -15 99 10 116 43 161 117 161
35 0 65 -14 95 -44 l22 -21 -26 -27 c-28 -31 -15 -37 27 -14 28 16 61 10 61
-11 0 -8 4 -11 10 -8 10 6 23 -32 20 -56 -2 -8 -2 -25 -1 -39 1 -20 3 -22 11
-10 8 12 10 11 10 -7 0 -13 -4 -23 -10 -23 -5 0 -10 -12 -10 -26 0 -48 -23
-105 -53 -130 -44 -37 -73 -31 -123 22 -41 45 -43 46 -65 30 l-23 -16 27 0
c30 0 32 -3 16 -29 -20 -31 -2 -84 44 -131 l42 -45 3 27 c4 36 56 75 77 58 10
-9 11 -18 4 -37 -5 -14 -7 -28 -5 -30 3 -3 1 -16 -4 -29 -7 -18 -6 -24 5 -24
18 0 29 17 13 22 -8 3 -8 9 0 24 11 18 11 18 12 -4 0 -28 18 -36 61 -25 28 8
36 16 43 47 8 29 7 40 -5 47 -34 24 159 -15 214 -43 36 -18 85 -76 122 -144
18 -34 18 -34 -6 -60 -22 -23 -24 -34 -23 -114 1 -48 4 -121 8 -162 8 -77 -1
-92 -10 -17 -7 56 -14 63 -14 13 0 -55 -14 -74 -31 -43 -10 16 -14 60 -14 136
0 62 -3 109 -7 105 -4 -4 -14 -50 -22 -103 -9 -53 -23 -123 -31 -155 -8 -32
-15 -73 -15 -91 0 -20 -5 -33 -12 -33 -9 0 -10 -2 -2 -8 8 -4 13 -59 15 -157
4 -164 5 -175 24 -175 13 0 38 87 54 196 5 33 18 76 29 94 l20 33 8 -48 c4
-30 2 -66 -6 -94 -7 -25 -14 -71 -16 -101 -2 -30 -8 -56 -14 -58 -5 -2 -10 -8
-10 -14 0 -6 31 -9 83 -7 94 4 135 24 178 87 l24 36 0 656 0 656 -24 36 c-13
19 -40 46 -59 59 -34 23 -44 24 -251 29 l-215 5 -9 35 c-4 19 -8 43 -8 53 0 9
-8 17 -17 18 -11 0 -12 3 -4 6 18 7 15 23 -5 23 -14 0 -15 2 -5 9 11 7 10 9
-3 14 -9 4 -15 12 -14 19 4 34 -1 37 -66 34 -43 -2 -63 0 -62 8 1 6 -8 11 -20
10 -13 0 -23 3 -23 8 0 4 -5 8 -11 8 -5 0 -8 -4 -4 -9 3 -5 1 -12 -5 -16 -6
-4 -7 -11 -4 -17 4 -6 -2 -6 -15 1 -24 13 -28 31 -6 31 8 0 15 4 15 9 0 14
-50 4 -70 -14 -10 -9 -27 -15 -37 -12 -15 4 -14 5 4 6 12 0 25 6 28 12 11 16
2 17 -28 1z"/>
</g>
</svg>
