<svg width="16" height="14" viewBox="0 0 16 14" fill="none" xmlns="http://www.w3.org/2000/svg">
<path d="M14.5592 2.64045C12.9781 1.72773 10.9562 2.27008 10.0425 3.85122L7.73925 7.84115C7.07278 8.99332 7.93076 9.39591 8.88747 9.96953L11.1038 11.2487C11.8543 11.6816 12.8129 11.4246 13.2458 10.6751L15.6136 6.5747C16.4091 5.19683 15.9371 3.43591 14.5592 2.64045Z" fill="#EA4335"/>
<path d="M11.9531 4.29225L9.73679 3.01309C8.51332 2.33393 7.82048 2.28898 7.31817 3.08736L4.04942 8.74837C3.13669 10.3285 3.68003 12.3494 5.26018 13.2602C6.63804 14.0556 8.39899 13.5836 9.19444 12.2057L12.5258 6.43528C12.9606 5.6848 12.7036 4.72516 11.9531 4.29225Z" fill="#FBBC04"/>
<path d="M12.3791 1.38192L10.8224 0.482886C9.10055 -0.510941 6.8989 0.0783181 5.90508 1.80017L2.94118 6.93345C2.50339 7.6908 2.76333 8.66018 3.52068 9.097L5.26403 10.1035C6.12493 10.601 7.22526 10.3058 7.72268 9.44489L11.1087 3.58066C11.8104 2.36597 13.3631 1.94968 14.5778 2.65132L12.3791 1.38192Z" fill="#34A853"/>
<path d="M6.32661 3.26911L4.64386 2.29972C3.89334 1.86779 2.93471 2.12382 2.5018 2.87237L0.482886 6.36103C-0.510941 8.07797 0.0783183 10.2748 1.80017 11.2657L3.08129 12.0034L4.63505 12.8986L5.30934 13.2865C4.11224 12.4852 3.73211 10.8796 4.46403 9.61513L4.98684 8.71218L6.90121 5.40432C7.33314 4.65775 7.07614 3.70104 6.32661 3.26911Z" fill="#4285F4"/>
</svg>
