<svg width="24" height="25" viewBox="0 0 24 25" fill="none" xmlns="http://www.w3.org/2000/svg">
<path d="M21.4701 12.4336L15.0501 6.02357C14.8865 5.85908 14.6709 5.75656 14.4401 5.73357L5.09005 4.85357C4.94358 4.8401 4.79595 4.8591 4.65767 4.90923C4.51939 4.95936 4.39387 5.03937 4.29005 5.14357C4.18585 5.24738 4.10584 5.3729 4.05571 5.51118C4.00559 5.64946 3.98658 5.7971 4.00005 5.94357L4.88005 15.2936C4.90305 15.5244 5.00557 15.74 5.17005 15.9036L11.5801 22.3236C11.9238 22.6627 12.3872 22.853 12.8701 22.8536C13.3499 22.8526 13.8099 22.6621 14.1501 22.3236L21.4701 15.0036C21.8102 14.6624 22.0012 14.2003 22.0012 13.7186C22.0012 13.2368 21.8102 12.7747 21.4701 12.4336ZM11.5601 12.4336C11.3503 12.6435 11.0831 12.7866 10.7921 12.8446C10.501 12.9026 10.1993 12.873 9.92514 12.7596C9.65094 12.6461 9.41656 12.4538 9.25166 12.2071C9.08675 11.9604 8.99873 11.6703 8.99873 11.3736C8.99873 11.0768 9.08675 10.7867 9.25166 10.54C9.41656 10.2933 9.65094 10.101 9.92514 9.98757C10.1993 9.87409 10.501 9.8445 10.7921 9.90253C11.0831 9.96056 11.3503 10.1036 11.5601 10.3136C11.8373 10.5927 11.9929 10.9702 11.9929 11.3636C11.9929 11.757 11.8373 12.1344 11.5601 12.4136V12.4336Z" fill="#A78DFF"/>
</svg>
