<svg width="24" height="25" viewBox="0 0 24 25" fill="none" xmlns="http://www.w3.org/2000/svg">
<g clip-path="url(#clip0_189_4044)">
<path d="M21.8143 21.7889C21.938 21.9126 21.9999 22.0591 21.9999 22.2284C21.9999 22.3977 21.938 22.5441 21.8143 22.6678C21.6906 22.7915 21.5441 22.8534 21.3749 22.8534C21.2056 22.8534 21.0591 22.7915 20.9354 22.6678L13.2694 15.0116C12.6509 15.5324 11.9673 15.9263 11.2186 16.1932C10.4699 16.4602 9.68868 16.5969 8.87487 16.6034C8.24336 16.6034 7.63464 16.522 7.0487 16.3592C6.46276 16.1965 5.91589 15.9654 5.40808 15.6659C4.90026 15.3664 4.43477 15.0083 4.01159 14.5917C3.58842 14.175 3.23034 13.7128 2.93737 13.205C2.6444 12.6971 2.41328 12.147 2.24401 11.5546C2.07474 10.9621 1.99336 10.3534 1.99987 9.72839C1.99987 9.09688 2.08125 8.48815 2.24401 7.90222C2.40677 7.31628 2.63789 6.7694 2.93737 6.26159C3.23685 5.75378 3.59493 5.28828 4.01159 4.86511C4.42826 4.44193 4.8905 4.08386 5.39831 3.79089C5.90612 3.49792 6.45625 3.2668 7.0487 3.09753C7.64115 2.92826 8.24987 2.84688 8.87487 2.85339C9.50638 2.85339 10.1151 2.93477 10.701 3.09753C11.287 3.26029 11.8339 3.49141 12.3417 3.79089C12.8495 4.09037 13.315 4.44844 13.7382 4.86511C14.1613 5.28177 14.5194 5.74401 14.8124 6.25183C15.1053 6.75964 15.3365 7.30977 15.5057 7.90222C15.675 8.49467 15.7564 9.10339 15.7499 9.72839C15.7499 10.5357 15.6164 11.3137 15.3495 12.0624C15.0826 12.8111 14.6854 13.4979 14.1581 14.1229L21.8143 21.7889ZM9.49987 12.8534H8.24987V14.1034H9.49987V12.8534ZM9.578 11.6034C9.578 11.4081 9.63985 11.2323 9.76355 11.076C9.88724 10.9198 10.0402 10.7668 10.2225 10.6171C10.4048 10.4673 10.6066 10.3111 10.828 10.1483C11.0494 9.98555 11.2479 9.80326 11.4237 9.60144C11.5995 9.39961 11.7557 9.17175 11.8925 8.91784C12.0292 8.66394 12.091 8.36446 12.078 8.0194C12.078 7.59623 11.9836 7.21537 11.7948 6.87683C11.606 6.53829 11.3619 6.25183 11.0624 6.01745C10.7629 5.78308 10.4211 5.60079 10.037 5.47058C9.65287 5.34037 9.2655 5.27526 8.87487 5.27526C8.49076 5.27526 8.1099 5.32735 7.7323 5.43151C7.35469 5.53568 7.00964 5.69844 6.69714 5.9198C6.38464 6.14115 6.13724 6.40808 5.95495 6.72058C5.77266 7.03308 5.67826 7.41068 5.67175 7.85339H7.078C7.078 7.63855 7.13659 7.45625 7.25378 7.30651C7.37097 7.15677 7.52396 7.03633 7.71276 6.94519C7.90157 6.85404 8.09688 6.78568 8.2987 6.74011C8.50052 6.69454 8.69258 6.675 8.87487 6.68151C9.06368 6.68151 9.26224 6.71081 9.47058 6.7694C9.67891 6.828 9.87422 6.91263 10.0565 7.02331C10.2388 7.13399 10.3853 7.27071 10.496 7.43347C10.6066 7.59623 10.6652 7.79154 10.6717 8.0194C10.6717 8.21472 10.6099 8.3905 10.4862 8.54675C10.3625 8.703 10.2095 8.85599 10.0272 9.00573C9.84493 9.15547 9.6431 9.31172 9.42175 9.47448C9.20039 9.63724 9.00183 9.81953 8.82605 10.0214C8.65026 10.2232 8.49401 10.451 8.3573 10.705C8.22058 10.9589 8.15873 11.2583 8.17175 11.6034H9.578Z" fill="#FFB027"/>
</g>
<defs>
<clipPath id="clip0_189_4044">
<rect width="20" height="20" fill="white" transform="translate(2 2.85352)"/>
</clipPath>
</defs>
</svg>
