<svg width="24" height="25" viewBox="0 0 24 25" fill="none" xmlns="http://www.w3.org/2000/svg">
<path d="M4 8.1889C4 7.9849 4 7.8829 4.038 7.7909C4.076 7.6989 4.148 7.6269 4.293 7.4819L5.828 5.9469C6.406 5.3689 6.696 5.0789 7.063 4.9269C7.431 4.7749 7.84 4.7749 8.657 4.7749H15.343C16.161 4.7749 16.569 4.7749 16.937 4.9269C17.304 5.0789 17.593 5.3689 18.172 5.9469L19.707 7.4819C19.852 7.6269 19.924 7.6989 19.962 7.7909C20 7.8829 20 7.9849 20 8.1889V8.7749H4V8.1889Z" stroke="#EA2A3A" stroke-width="2"/>
<path fill-rule="evenodd" clip-rule="evenodd" d="M21 8.7749H3V17.7749C3 19.6609 3 20.6029 3.586 21.1889C4.172 21.7749 5.114 21.7749 7 21.7749H17C18.886 21.7749 19.828 21.7749 20.414 21.1889C21 20.6029 21 19.6609 21 17.7749V8.7749ZM10 11.7749C10 11.5097 9.89464 11.2553 9.70711 11.0678C9.51957 10.8803 9.26522 10.7749 9 10.7749C8.73478 10.7749 8.48043 10.8803 8.29289 11.0678C8.10536 11.2553 8 11.5097 8 11.7749C8 12.8358 8.42143 13.8532 9.17157 14.6033C9.92172 15.3535 10.9391 15.7749 12 15.7749C13.0609 15.7749 14.0783 15.3535 14.8284 14.6033C15.5786 13.8532 16 12.8358 16 11.7749C16 11.5097 15.8946 11.2553 15.7071 11.0678C15.5196 10.8803 15.2652 10.7749 15 10.7749C14.7348 10.7749 14.4804 10.8803 14.2929 11.0678C14.1054 11.2553 14 11.5097 14 11.7749C14 12.3053 13.7893 12.814 13.4142 13.1891C13.0391 13.5642 12.5304 13.7749 12 13.7749C11.4696 13.7749 10.9609 13.5642 10.5858 13.1891C10.2107 12.814 10 12.3053 10 11.7749Z" fill="#EA2A3A"/>
</svg>
