<svg width="24" height="25" viewBox="0 0 24 25" fill="none" xmlns="http://www.w3.org/2000/svg">
<path fill-rule="evenodd" clip-rule="evenodd" d="M14.2111 18.2761C14.731 18.0161 15.3012 17.8727 15.8822 17.8556C16.4631 17.8385 17.0408 17.9482 17.5751 18.1771L17.7891 18.2771L20.4471 19.6051C20.6754 19.7191 20.8515 19.916 20.9393 20.1556C21.0271 20.3953 21.02 20.6594 20.9194 20.8939C20.8188 21.1284 20.6324 21.3156 20.3983 21.4172C20.1641 21.5187 19.9001 21.5269 19.6601 21.4401L19.5531 21.3941L16.8941 20.0651C16.6447 19.9404 16.3721 19.8692 16.0936 19.8562C15.8152 19.8431 15.537 19.8883 15.2771 19.9891L15.1051 20.0651L13.7891 20.7241C13.269 20.984 12.6986 21.1274 12.1174 21.1443C11.5363 21.1612 10.9584 21.0513 10.4241 20.8221L10.2111 20.7241L8.89409 20.0651C8.64475 19.9404 8.37209 19.8692 8.09363 19.8562C7.81516 19.8431 7.53703 19.8883 7.27709 19.9891L7.10509 20.0651L4.44709 21.3951C4.21875 21.5105 3.95482 21.5341 3.70964 21.4609C3.46446 21.3876 3.25667 21.2232 3.12906 21.0014C3.00144 20.7796 2.9637 20.5173 3.02361 20.2686C3.08351 20.0198 3.23651 19.8034 3.45109 19.6641L3.55309 19.6051L6.21109 18.2761C6.73096 18.0161 7.30121 17.8727 7.88218 17.8556C8.46314 17.8385 9.04085 17.9482 9.57509 18.1771L9.78909 18.2771L11.1051 18.9351C11.3546 19.0599 11.6274 19.1311 11.9061 19.1442C12.1847 19.1573 12.463 19.1119 12.7231 19.0111L12.8941 18.9351L14.2111 18.2761ZM13.0001 2.50006C13.2653 2.50006 13.5197 2.60542 13.7072 2.79295C13.8947 2.98049 14.0001 3.23484 14.0001 3.50006V4.82006L17.3291 5.37406C17.7959 5.45215 18.2199 5.69326 18.5257 6.05452C18.8314 6.41578 18.9992 6.87377 18.9991 7.34706V10.7791L21.0591 11.4651C21.2232 11.5198 21.3741 11.608 21.5023 11.724C21.6305 11.8401 21.7333 11.9815 21.8041 12.1393C21.8748 12.2971 21.9121 12.4679 21.9135 12.6408C21.9149 12.8138 21.8803 12.9851 21.8121 13.1441L19.6431 18.2041L17.7891 17.2761C17.2336 16.9983 16.6211 16.8537 16.0001 16.8537C15.3791 16.8537 14.7666 16.9983 14.2111 17.2761L12.8941 17.9351C12.6164 18.0739 12.3101 18.1462 11.9996 18.1462C11.6891 18.1462 11.3828 18.0739 11.1051 17.9351L9.78909 17.2761C9.23363 16.9983 8.62113 16.8537 8.00009 16.8537C7.37906 16.8537 6.76655 16.9983 6.21109 17.2761L4.94109 17.9121L2.28309 13.2611C2.19134 13.1005 2.13636 12.9216 2.12212 12.7372C2.10788 12.5528 2.13473 12.3675 2.20073 12.1948C2.26673 12.022 2.37025 11.8661 2.50381 11.7382C2.63737 11.6102 2.79765 11.5135 2.97309 11.4551L5.00009 10.7791V7.34706C5 6.87377 5.16775 6.41578 5.47353 6.05452C5.7793 5.69326 6.20329 5.45215 6.67009 5.37406L10.0001 4.82006V3.50006C10.0001 3.23484 10.1055 2.98049 10.293 2.79295C10.4805 2.60542 10.7349 2.50006 11.0001 2.50006H13.0001ZM12.0001 6.51406L7.00009 7.34706V10.1131L11.3671 8.65706C11.7777 8.5202 12.2215 8.5202 12.6321 8.65706L17.0001 10.1131V7.34706L12.0001 6.51406Z" fill="#EA2A3A"/>
</svg>
