<svg width="24" height="25" viewBox="0 0 24 25" fill="none" xmlns="http://www.w3.org/2000/svg">
<path d="M21.45 12.002H20.06C19.8783 10.1115 19.0445 8.3432 17.7016 7.00031C16.3587 5.65741 14.5904 4.82362 12.7 4.64195V3.25195C12.7 3.05304 12.621 2.86228 12.4803 2.72162C12.3397 2.58097 12.1489 2.50195 11.95 2.50195C11.7511 2.50195 11.5603 2.58097 11.4197 2.72162C11.279 2.86228 11.2 3.05304 11.2 3.25195V4.64195C9.31784 4.83271 7.56021 5.67072 6.22707 7.01298C4.89393 8.35523 4.06792 10.1185 3.89 12.002H2.5C2.40151 12.002 2.30398 12.0214 2.21299 12.059C2.12199 12.0967 2.03931 12.152 1.96967 12.2216C1.90003 12.2913 1.84478 12.3739 1.80709 12.4649C1.7694 12.5559 1.75 12.6535 1.75 12.752C1.75 12.8504 1.7694 12.948 1.80709 13.039C1.84478 13.13 1.90003 13.2126 1.96967 13.2823C2.03931 13.3519 2.12199 13.4072 2.21299 13.4449C2.30398 13.4826 2.40151 13.502 2.5 13.502H3.89C4.07167 15.3924 4.90546 17.1607 6.24835 18.5036C7.59125 19.8465 9.35957 20.6803 11.25 20.862V22.252C11.25 22.4509 11.329 22.6416 11.4697 22.7823C11.6103 22.9229 11.8011 23.002 12 23.002C12.1989 23.002 12.3897 22.9229 12.5303 22.7823C12.671 22.6416 12.75 22.4509 12.75 22.252V20.862C14.6397 20.6784 16.407 19.844 17.7496 18.5015C19.0921 17.159 19.9265 15.3917 20.11 13.502H21.5C21.5985 13.502 21.696 13.4826 21.787 13.4449C21.878 13.4072 21.9607 13.3519 22.0303 13.2823C22.1 13.2126 22.1552 13.13 22.1929 13.039C22.2306 12.948 22.25 12.8504 22.25 12.752C22.25 12.6535 22.2306 12.5559 22.1929 12.4649C22.1552 12.3739 22.1 12.2913 22.0303 12.2216C21.9607 12.152 21.878 12.0967 21.787 12.059C21.696 12.0214 21.5985 12.002 21.5 12.002H21.45ZM11.95 19.392C10.6367 19.392 9.35296 19.0025 8.26101 18.2729C7.16907 17.5433 6.31801 16.5063 5.81544 15.293C5.31287 14.0797 5.18138 12.7446 5.43759 11.4566C5.69379 10.1685 6.32619 8.98538 7.25481 8.05676C8.18343 7.12814 9.36657 6.49574 10.6546 6.23954C11.9426 5.98333 13.2777 6.11483 14.491 6.61739C15.7043 7.11996 16.7413 7.97102 17.471 9.06297C18.2006 10.1549 18.59 11.4387 18.59 12.752C18.59 14.5139 17.8908 16.2039 16.6458 17.4507C15.4008 18.6975 13.712 19.3993 11.95 19.402V19.392Z" fill="#1C9C1B"/>
<path d="M16.4799 12.7619C16.4799 13.6603 16.2134 14.5384 15.7141 15.2853C15.2148 16.0321 14.5051 16.614 13.675 16.9573C12.8448 17.3006 11.9315 17.3899 11.0505 17.214C10.1696 17.038 9.36063 16.6046 8.7261 15.9686C8.09157 15.3327 7.65997 14.5228 7.48592 13.6415C7.31188 12.7602 7.40321 11.847 7.74837 11.0176C8.09352 10.1882 8.67698 9.47985 9.4249 8.9822C10.1728 8.48454 11.0516 8.21996 11.9499 8.22193C12.5456 8.22193 13.1355 8.33944 13.6858 8.56771C14.236 8.79599 14.7359 9.13057 15.1566 9.55227C15.5774 9.97398 15.9109 10.4745 16.138 11.0253C16.365 11.5761 16.4812 12.1662 16.4799 12.7619Z" fill="#1C9C1B"/>
</svg>
