<svg width="16" height="16" viewBox="0 0 16 16" fill="none" xmlns="http://www.w3.org/2000/svg">
<path fill-rule="evenodd" clip-rule="evenodd" d="M14.0664 5.33567C14.0297 5.33301 13.9891 5.33301 13.9464 5.33301H12.2631C10.8844 5.33301 9.70508 6.41834 9.70508 7.83301C9.70508 9.24767 10.8851 10.333 12.2631 10.333H13.9464C13.9891 10.333 14.0297 10.333 14.0677 10.3303C14.3511 10.3133 14.6186 10.1937 14.8203 9.99406C15.0221 9.79439 15.1444 9.52817 15.1644 9.24501C15.1671 9.20501 15.1671 9.16167 15.1671 9.12167V6.54434C15.1671 6.50434 15.1671 6.46101 15.1644 6.42101C15.1444 6.13785 15.0221 5.87163 14.8203 5.67195C14.6186 5.47227 14.3511 5.35276 14.0677 5.33567M12.1157 8.49967C12.4704 8.49967 12.7577 8.20101 12.7577 7.83301C12.7577 7.46501 12.4704 7.16634 12.1157 7.16634C11.7604 7.16634 11.4731 7.46501 11.4731 7.83301C11.4731 8.20101 11.7604 8.49967 12.1157 8.49967Z" fill="black"/>
<path fill-rule="evenodd" clip-rule="evenodd" d="M13.945 11.3333C13.9681 11.3324 13.991 11.3369 14.012 11.3465C14.0329 11.3561 14.0513 11.3706 14.0657 11.3886C14.0801 11.4067 14.0899 11.4279 14.0946 11.4505C14.0992 11.4731 14.0984 11.4964 14.0923 11.5187C13.959 11.9933 13.7463 12.3987 13.4057 12.7387C12.9063 13.2387 12.2737 13.4593 11.4923 13.5647C10.7323 13.6667 9.76234 13.6667 8.53701 13.6667H7.12901C5.90367 13.6667 4.93301 13.6667 4.17367 13.5647C3.39234 13.4593 2.75967 13.238 2.26034 12.7393C1.76167 12.24 1.54034 11.6073 1.43501 10.826C1.33301 10.066 1.33301 9.096 1.33301 7.87067V7.796C1.33301 6.57067 1.33301 5.6 1.43501 4.84C1.54034 4.05867 1.76167 3.426 2.26034 2.92667C2.75967 2.428 3.39234 2.20667 4.17367 2.10133C4.93367 2 5.90367 2 7.12901 2H8.53701C9.76234 2 10.733 2 11.4923 2.102C12.2737 2.20733 12.9063 2.42867 13.4057 2.92733C13.7463 3.26867 13.959 3.67333 14.0923 4.148C14.0984 4.17025 14.0992 4.19362 14.0946 4.21621C14.0899 4.23881 14.0801 4.26 14.0657 4.27805C14.0513 4.29611 14.0329 4.31053 14.012 4.32013C13.991 4.32974 13.9681 4.33426 13.945 4.33333H12.2623C10.371 4.33333 8.70434 5.82667 8.70434 7.83333C8.70434 9.84 10.371 11.3333 12.2623 11.3333H13.945ZM3.83301 4.66667C3.7004 4.66667 3.57322 4.71935 3.47945 4.81311C3.38569 4.90688 3.33301 5.03406 3.33301 5.16667C3.33301 5.29927 3.38569 5.42645 3.47945 5.52022C3.57322 5.61399 3.7004 5.66667 3.83301 5.66667H6.49967C6.63228 5.66667 6.75946 5.61399 6.85323 5.52022C6.947 5.42645 6.99967 5.29927 6.99967 5.16667C6.99967 5.03406 6.947 4.90688 6.85323 4.81311C6.75946 4.71935 6.63228 4.66667 6.49967 4.66667H3.83301Z" fill="black"/>
</svg>
